<svg xmlns="http://www.w3.org/2000/svg" width="512" height="512">
  <path d="M377.656 84.947C355.56 40.044 309.333 9.067 256 9.067s-99.56 30.976-121.656 75.879C60.16 85.57 0 146.104 0 220.432c0 29.488 9.311 57.526 26.927 81.081 14.779 19.762 35.007 35.303 57.761 44.555v156.865H427.25v-156.84c22.779-9.249 43.031-24.8 57.823-44.58C502.689 277.958 512 249.919 512 220.432c0-74.328-60.16-134.862-134.344-135.485zm19.594 387.985H114.688v-42.667H397.25v42.667zm10.628-151.742l-10.41 3.238-.217 17.651-.001 58.185H344V288.599h-30v111.667h-43V288.599h-30v111.667h-43V288.599h-30v111.667h-53.313V344.9l-.044-20.436-10.521-3.272C59.787 307.401 30 266.909 30 220.432c0-54.159 41.023-98.909 93.627-104.828a135.483 135.483 0 0 0-3.127 28.964h30c0-58.173 47.327-105.5 105.5-105.5s105.5 47.327 105.5 105.5h30c0-9.939-1.086-19.628-3.127-28.964C440.977 121.523 482 166.273 482 220.432c0 46.477-29.787 86.969-74.122 100.758z" fill="#fffaf4"/>
</svg>
