<svg xmlns="http://www.w3.org/2000/svg" viewBox="0 0 512.001 512.001" width="512" height="512">
  <path d="M442.181 310.306h-21.512c18.526-29.194 29.269-63.791 29.269-100.853.002-104.087-84.678-188.767-188.765-188.767S72.405 105.366 72.405 209.454c0 37.062 10.743 71.659 29.269 100.853H80.163a7.758 7.758 0 0 0-5.235 13.482l181.01 165.495a7.737 7.737 0 0 0 5.234 2.032 7.741 7.741 0 0 0 5.234-2.032l181.01-165.495a7.758 7.758 0 0 0-5.235-13.483zM87.92 209.454c0-95.532 77.721-173.253 173.253-173.253s173.253 77.721 173.253 173.253c0 95.531-77.721 173.253-173.253 173.253S87.92 304.986 87.92 209.454zm173.253 263.592L100.144 325.821h12.494c34.587 44.051 88.313 72.4 148.535 72.4 60.222 0 113.947-28.348 148.535-72.4h12.494L261.173 473.046z" fill="#dac2a6"/>
  <path d="M377.918 160.127c-6.382-15.081-15.515-28.63-27.152-40.267-11.636-11.636-25.186-20.77-40.267-27.152-15.629-6.609-32.22-9.961-49.328-9.961h-.011c-9.764 0-19.487 1.117-28.92 3.32a125.974 125.974 0 0 0-26.572 9.453c-21.028 10.251-38.798 26.127-51.407 45.904-12.95 20.304-19.797 43.825-19.797 68.029 0 9.619 1.086 19.218 3.227 28.527a126.188 126.188 0 0 0 9.206 26.262 7.798 7.798 0 0 0 6.992 4.408 7.549 7.549 0 0 0 3.351-.776c3.858-1.851 5.492-6.495 3.641-10.343 0-.01 0-.01-.011-.01a110.438 110.438 0 0 1-8.058-23.024 111.493 111.493 0 0 1-2.834-25.041c0-21.235 5.999-41.881 17.367-59.703a111.56 111.56 0 0 1 45.128-40.287 110.5 110.5 0 0 1 23.304-8.296 112.208 112.208 0 0 1 25.393-2.906c15.029 0 29.582 2.937 43.287 8.729 13.219 5.596 25.114 13.612 35.344 23.831 10.219 10.23 18.235 22.125 23.831 35.343 5.792 13.705 8.73 28.269 8.73 43.288 0 15.018-2.938 29.582-8.73 43.277-5.596 13.229-13.612 25.124-23.831 35.344-10.23 10.219-22.125 18.235-35.344 23.831-13.705 5.792-28.268 8.74-43.287 8.74-8.306 0-16.581-.921-24.597-2.731a110.407 110.407 0 0 1-22.673-7.788 110.904 110.904 0 0 1-20.159-12.258 112.383 112.383 0 0 1-17.057-16.125 7.76 7.76 0 0 0-5.896-2.72 7.734 7.734 0 0 0-5.047 1.872c-3.248 2.783-3.63 7.686-.848 10.933a127.517 127.517 0 0 0 19.425 18.37 126.964 126.964 0 0 0 22.973 13.964 126.284 126.284 0 0 0 25.838 8.886 127.861 127.861 0 0 0 28.021 3.113h.021c17.108 0 33.698-3.351 49.328-9.961 15.081-6.382 28.63-15.515 40.267-27.152 11.636-11.636 20.77-25.187 27.152-40.278 6.61-15.618 9.961-32.209 9.961-49.317 0-17.107-3.352-33.698-9.961-49.328z" fill="#dac2a6"/>
  <path d="M59.476 82.748a7.758 7.758 0 0 0-7.758 7.758v33.618H41.375v-33.62a7.758 7.758 0 0 0-15.516 0v33.62H15.515V90.506a7.758 7.758 0 1 0-15.515 0v56.889c0 15.867 11.052 29.19 25.86 32.703V328.4a7.758 7.758 0 0 0 15.516 0V180.098c14.807-3.513 25.859-16.837 25.859-32.703V90.506a7.76 7.76 0 0 0-7.759-7.758zm-7.758 64.647c0 9.981-8.12 18.101-18.101 18.101s-18.102-8.12-18.102-18.101v-7.756h36.203v7.756z" fill="#dac2a6"/>
  <path d="M473.212 82.748a7.758 7.758 0 0 0-7.758 7.758V328.4a7.758 7.758 0 0 0 15.516 0V212.04h23.273a7.758 7.758 0 0 0 7.758-7.758v-82.747C512 100.149 494.6 82.748 473.212 82.748zm23.273 113.777H480.97V99.598c9.029 3.203 15.515 11.825 15.515 21.938v74.989z" fill="#dac2a6"/>
  <path d="M322.36 159.809c-8.901-8.909-20.74-13.815-33.335-13.815-10.156 0-19.818 3.189-27.844 9.095-8.034-5.906-17.701-9.095-27.857-9.095-12.596 0-24.435 4.906-33.335 13.812-18.377 18.377-18.377 48.285.001 66.673l55.709 55.695c1.515 1.514 3.5 2.272 5.485 2.272s3.971-.758 5.486-2.273l55.69-55.696c18.373-18.387 18.373-48.294 0-66.668zm-10.973 55.699l-50.204 50.209-50.222-50.208c-12.33-12.336-12.331-32.403 0-44.733 5.972-5.976 13.914-9.267 22.363-9.267 8.45 0 16.397 3.291 22.375 9.269a7.757 7.757 0 0 0 5.485 2.272h.003a7.755 7.755 0 0 0 5.486-2.276c5.966-5.975 13.904-9.265 22.352-9.265 8.449 0 16.389 3.291 22.362 9.268 12.328 12.328 12.327 32.396 0 44.731z" fill="#dac2a6"/>
</svg>
