<svg xmlns="http://www.w3.org/2000/svg" width="512" height="512">
  <path d="M253.15 27.571L151.253.269a8.377 8.377 0 0 0-.936-.187c-.079-.011-.158-.018-.237-.027a7.706 7.706 0 0 0-.77-.048c-.038-.001-.074-.007-.111-.007-.021 0-.041.005-.062.005a7.821 7.821 0 0 0-1.199.1c-.046.008-.091.019-.138.027a7.9 7.9 0 0 0-2.247.771c-.049.026-.099.049-.148.076a7.864 7.864 0 0 0-.958.619c-.043.032-.084.066-.126.099a7.846 7.846 0 0 0-1.62 1.721c-.028.039-.057.078-.084.12-.212.318-.4.655-.566 1.008-.029.063-.055.126-.083.189-.157.36-.298.73-.403 1.122l-.004.009-8.186 30.572c-1.129 4.22 1.372 8.566 5.591 9.694a7.9 7.9 0 0 0 2.046.264 7.9 7.9 0 0 0 7.637-5.865l6.148-22.93 86.614 23.207-22.978 85.757h-92.83l14.861-55.463a7.861 7.861 0 0 0-.791-6.002 7.834 7.834 0 0 0-4.811-3.682 7.916 7.916 0 0 0-2.046-.274 7.924 7.924 0 0 0-7.638 5.865l-17.314 64.62a7.88 7.88 0 0 0-.429 1.602l-9.558 35.673-.003.011c-4.188 15.646-2.036 31.986 6.063 46.013 6.766 11.72 17.015 20.638 29.326 25.706l-38.195 142.55-33.087 19.101-27.402-7.342c-4.216-1.134-8.559 1.373-9.69 5.594a7.911 7.911 0 0 0 5.595 9.69l122.279 32.764a7.91 7.91 0 0 0 2.053.272 7.915 7.915 0 0 0 7.637-5.866 7.911 7.911 0 0 0-5.595-9.69l-27.401-7.342-19.104-33.086 38.193-142.535c2.674.358 5.353.538 8.024.538 10.51 0 20.883-2.756 30.229-8.152 14.032-8.102 24.069-21.181 28.262-36.831l.002-.007 43.682-163.031a7.91 7.91 0 0 0-5.595-9.69zM83.597 408.077l15.369-8.872 8.874 15.369-24.243-6.497zM199.774 196.21l-.001.002c-3.101 11.563-10.518 21.228-20.886 27.214-10.373 5.988-22.454 7.578-34.021 4.478-11.568-3.1-21.237-10.518-27.224-20.889-5.987-10.369-7.578-22.448-4.48-34.014l.002-.004 8.201-30.608h92.83l-14.421 53.821z" fill="#dac2a6"/>
  <path d="M487.111 469.271c-1.131-4.221-5.469-6.729-9.69-5.594l-27.404 7.343-33.084-19.103-38.199-142.553c27.7-11.452 43.35-42.014 35.387-71.73a.084.084 0 0 1-.005-.017l-30.027-112.062a7.92 7.92 0 0 0-7.638-5.865 7.854 7.854 0 0 0-6.857 3.956 7.853 7.853 0 0 0-.791 6.002l7.709 28.77h-92.828l-13.096-48.875 86.613-23.208 3.416 12.741a7.912 7.912 0 0 0 7.627 5.865c.696 0 1.383-.095 2.057-.274 4.22-1.129 6.72-5.475 5.591-9.684l-5.454-20.381c-.004-.016-.012-.031-.018-.047a8.032 8.032 0 0 0-.386-1.076c-.03-.067-.057-.135-.089-.201a7.928 7.928 0 0 0-.566-1.008c-.025-.037-.052-.072-.076-.109a7.893 7.893 0 0 0-1.648-1.747l-.085-.067a8.02 8.02 0 0 0-.998-.646l-.09-.045a7.894 7.894 0 0 0-2.323-.797l-.073-.014a7.855 7.855 0 0 0-1.249-.104l-.037-.003c-.023 0-.044.004-.067.004a7.79 7.79 0 0 0-.832.052c-.073.008-.145.014-.217.025a8.426 8.426 0 0 0-.773.15c-.056.013-.112.019-.168.033l-.061.02L258.85 96.308a7.913 7.913 0 0 0-5.595 9.69l43.687 163.044.002.005c7.257 27.061 31.824 44.954 58.601 44.954 2.62 0 5.261-.173 7.909-.523l38.194 142.536-19.103 33.087-27.404 7.343A7.914 7.914 0 1 0 357.184 512c.678 0 1.367-.088 2.053-.272l91.668-24.563.012-.004 30.6-8.199a7.913 7.913 0 0 0 5.594-9.691zM312.224 264.937l-.001-.003-24.3-90.69h92.829l18.084 67.491c.001.006.004.011.006.016 6.383 23.873-7.837 48.494-31.708 54.891-23.879 6.4-48.51-7.824-54.91-31.705zm91.937 218.37l8.874-15.368 15.367 8.873-24.241 6.495z" fill="#dac2a6"/>
</svg>
