<svg xmlns="http://www.w3.org/2000/svg" width="512" height="512">
  <path d="M321.129 301.616c-9.477-9.48-22.078-14.701-35.484-14.701-10.81 0-21.097 3.394-29.645 9.68-8.548-6.286-18.835-9.68-29.645-9.68-13.405 0-26.007 5.22-35.485 14.7-19.565 19.565-19.565 51.402 0 70.968l59.291 59.29a8.234 8.234 0 0 0 5.839 2.419 8.238 8.238 0 0 0 5.84-2.419l59.287-59.289c9.48-9.478 14.701-22.081 14.701-35.485 0-13.405-5.221-26.007-14.699-35.483zm-11.681 59.288L256 414.355l-53.452-53.45c-13.125-13.127-13.125-34.485.001-47.612 6.359-6.36 14.813-9.862 23.806-9.862 8.992 0 17.447 3.502 23.805 9.862a8.256 8.256 0 0 0 11.68 0c6.358-6.36 14.813-9.862 23.805-9.862s17.446 3.502 23.804 9.863c6.36 6.358 9.862 14.811 9.862 23.804 0 8.992-3.503 17.447-9.863 23.806z" fill="#dac2a6"/>
  <path d="M498.233 88.085h-57.861c-.342-20.007-2.222-41.399-10.034-57.612C420.594 10.253 402.693 0 377.131 0c-18.179 0-42.985 5.008-64.736 13.07-16.704 6.191-37.972 16.485-49.249 31.474a52.333 52.333 0 0 0-7.146-.501c-2.421 0-4.801.18-7.136.5-11.278-14.988-32.545-25.282-49.248-31.472C177.865 5.008 153.059 0 134.88 0c-25.562 0-43.464 10.253-53.207 30.473-7.813 16.213-9.692 37.605-10.034 57.612H13.767a8.258 8.258 0 0 0-8.258 8.258v99.098a8.258 8.258 0 0 0 8.258 8.258H27.53v300.043A8.258 8.258 0 0 0 35.788 512h440.424a8.258 8.258 0 0 0 8.258-8.258V228.473a8.258 8.258 0 0 0-8.258-8.258 8.258 8.258 0 0 0-8.258 8.258v267.011H44.046V203.699h454.187a8.258 8.258 0 0 0 8.258-8.258V96.343a8.258 8.258 0 0 0-8.258-8.258zM256 60.558c16.889.001 31.073 11.765 34.813 27.527h-69.625c3.739-15.762 17.923-27.527 34.812-27.527zm-52.3 126.625H22.025v-82.582H203.7v82.582zm.658-99.098H88.157c.316-18.061 1.931-37.032 8.394-50.442 6.946-14.414 19.125-21.127 38.329-21.127 16.105 0 39.262 4.726 58.996 12.04 16.71 6.193 29.904 13.742 37.843 21.486-14.312 7.536-24.726 21.506-27.361 38.043zm87.426 99.096h-71.569v-82.58h71.569v82.58zM280.235 50.019c19.794-19.567 68.936-33.503 96.896-33.503 19.204 0 31.382 6.713 38.329 21.127 6.462 13.411 8.077 32.381 8.395 50.443H307.643c-2.638-16.555-13.073-30.537-27.408-38.067zm209.741 137.164H308.301v-82.582h181.675v82.582z" fill="#dac2a6"/>
  <path d="M377.427 304.864c-5.087-13.818-12.464-26.591-21.912-37.954-9.392-11.286-20.513-20.832-33.076-28.363a128.463 128.463 0 0 0-41.411-15.911l-.088-.022a130.274 130.274 0 0 0-24.938-2.4c-16.087 0-31.777 2.918-46.642 8.665-14.358 5.549-27.515 13.565-39.099 23.816-23.442 20.766-38.559 49.229-42.567 80.157-.583 4.514 2.62 8.654 7.135 9.249.353.044.716.066 1.068.066 4.129 0 7.652-3.094 8.181-7.201 3.48-26.954 16.67-51.772 37.117-69.884a112.38 112.38 0 0 1 34.089-20.789c12.97-5.02 26.657-7.564 40.684-7.564H256c7.289 0 14.589.704 21.679 2.081l.176.033h.011a111.935 111.935 0 0 1 36.082 13.884 113.035 113.035 0 0 1 28.859 24.73c8.247 9.921 14.688 21.063 19.126 33.12 4.602 12.475 6.926 25.6 6.926 39.011 0 15.249-2.984 30.026-8.863 43.932-5.682 13.422-13.819 25.49-24.191 35.873-10.383 10.372-22.45 18.509-35.873 24.19-13.906 5.88-28.683 8.864-43.932 8.864h-.033c-13.896 0-27.471-2.499-40.343-7.432a112.466 112.466 0 0 1-33.901-20.458c-20.359-17.815-33.66-42.281-37.447-68.894-.574-4.038-4.086-7.088-8.161-7.088a8.17 8.17 0 0 0-6.617 3.292 8.2 8.2 0 0 0-1.575 6.122c4.349 30.555 19.599 58.61 42.942 79.023 11.539 10.085 24.62 17.969 38.868 23.43 14.754 5.648 30.323 8.522 46.267 8.522 17.462 0 34.408-3.425 50.363-10.163 15.403-6.519 29.233-15.844 41.114-27.725 11.88-11.88 21.217-25.721 27.725-41.125 6.749-15.954 10.174-32.9 10.174-50.362 0-15.382-2.676-30.434-7.949-44.725z" fill="#dac2a6"/>
</svg>
