<svg xmlns="http://www.w3.org/2000/svg" viewBox="0 0 130.39 100.58"><title>bg</title><polygon points="129.31 66.65 2.39 92.48 5.81 82.16 1.02 72.7 126.57 47.55 123.84 57.53 129.31 66.65" style="fill:#a74f46"/><path d="M63.44.87c12.14.09,27.89,7.6,32,12.61,1.12,1.38,1.8,2.87,4.3,4.26A10.19,10.19,0,0,1,104.43,24c.61,2.47,2.09,4.5,3.54,6.69,2.09,3.16,4.58,13,4.53,20a55.51,55.51,0,0,1-2.72,16.08c-3.66,11.41-15.37,24.06-21.31,26.38-1.63.63-3.23.81-5.27,2.73a9.89,9.89,0,0,1-7.26,2.47c-2.51-.19-4.86.57-7.35,1.26a24.22,24.22,0,0,1-6.66.39,53.52,53.52,0,0,1-13.54-2.34c-6.68-2.15-15.17-7.54-17.52-10.49-1.64-2-3.12-4.07-5.27-5.41a10.35,10.35,0,0,1-4.5-6.35c-.57-2.79-1.77-3.88-2.74-5.37a27.32,27.32,0,0,1-3.11-8.95A50.06,50.06,0,0,1,14,50.72c-.06-7.08,2.44-16.88,4.52-20C19.92,28.49,21.4,26.46,22,24a10.24,10.24,0,0,1,4.69-6.25c2.5-1.39,3.17-2.88,4.3-4.26C35.12,8.47,50.87,1,63,.87" style="fill:#fff"/><rect x="1.8" y="62.52" width="125.37" height="1.37" transform="translate(-11.37 14.22) rotate(-11.57)" style="fill:#fff"/><rect x="2.49" y="75.86" width="126.04" height="1.37" transform="translate(-13.98 14.64) rotate(-11.53)" style="fill:#fff"/><path d="M65.74,77.77a.33.33,0,0,1-.34-.31.34.34,0,0,1,.31-.37,25.46,25.46,0,0,0,22-16.81A25.44,25.44,0,0,0,72.27,27.77a.35.35,0,0,1-.21-.44.35.35,0,0,1,.44-.21,26.11,26.11,0,0,1-6.74,50.65Z"/><path d="M40.39,62a.34.34,0,0,1-.31-.21,26,26,0,0,1-.55-18.93,26.51,26.51,0,0,1,3.18-6.17.34.34,0,0,1,.48-.09.35.35,0,0,1,.08.48,25.46,25.46,0,0,0-2.56,24.44.34.34,0,0,1-.19.45A.31.31,0,0,1,40.39,62Z"/><polygon points="118.25 60.55 11.51 83.24 11.51 62.03 118.25 39.34 118.25 60.55" style="fill:#a74f46"/><path d="M12.19,62.58V82.4L117.56,60V40.19Z" style="fill:#a74f46"/><polygon points="96.81 30.48 100.03 29.96 98.61 32.67 100.03 35.6 96.89 35.04 94.56 37.23 94.19 34.21 91.33 32.64 94.2 31.31 94.73 28.08 96.81 30.48" style="fill:#a74f46"/><path d="M94.71,37.46c-.24,0-.51-.18-.55-.68L94,34.88a1.18,1.18,0,0,0-.64-.9l-1.75-.75c-.43-.18-.49-.44-.49-.58s.07-.41.5-.58l1.77-.72a1.2,1.2,0,0,0,.65-.89l.17-1.9c0-.49.31-.67.55-.67a.74.74,0,0,1,.56.32l1.23,1.46a1.25,1.25,0,0,0,.87.37h0l.18,0,1.86-.43.25,0a.58.58,0,0,1,.52.26.71.71,0,0,1-.09.72l-1,1.62a1.19,1.19,0,0,0,0,1.1l1,1.64a.66.66,0,0,1,.08.71.52.52,0,0,1-.5.27,1.26,1.26,0,0,1-.27,0l-1.86-.46a1.24,1.24,0,0,0-1,.33l-1.25,1.44A.74.74,0,0,1,94.71,37.46Zm-2.95-4.81.09.05,1.76.75a1.76,1.76,0,0,1,1,1.39l.14,1.9a.31.31,0,0,0,0,.11l.07-.08,1.26-1.44a1.8,1.8,0,0,1,1.62-.51l1.86.46h.1a.44.44,0,0,0,0-.09l-1-1.64a1.74,1.74,0,0,1,0-1.7l1-1.63a.28.28,0,0,0,0-.09h-.1l-1.86.43a1.55,1.55,0,0,1-.31,0h0A1.76,1.76,0,0,1,96.13,30L94.9,28.58s-.05-.06-.08-.07,0,.06,0,.1l-.17,1.9a1.77,1.77,0,0,1-1,1.37l-1.77.72Z"/><polygon points="26.33 46.42 29.55 45.9 28.12 48.6 29.55 51.54 26.41 50.97 24.07 53.17 23.7 50.14 20.85 48.58 23.72 47.24 24.25 44.01 26.33 46.42" style="fill:#a74f46"/><path d="M24.23,53.4c-.24,0-.52-.18-.55-.68l-.14-1.91a1.16,1.16,0,0,0-.64-.89l-1.76-.75c-.42-.18-.48-.45-.48-.59s.06-.4.49-.58l1.77-.72a1.19,1.19,0,0,0,.66-.88l.17-1.91c0-.49.31-.66.55-.66a.72.72,0,0,1,.56.31l1.23,1.46A1.19,1.19,0,0,0,27,46h0a.47.47,0,0,0,.17,0L29,45.53a.77.77,0,0,1,.25,0,.53.53,0,0,1,.51.27.64.64,0,0,1-.09.71l-1,1.63a1.19,1.19,0,0,0,0,1.1l1,1.64a.68.68,0,0,1,.08.71.55.55,0,0,1-.51.26l-.27,0-1.85-.46a1.24,1.24,0,0,0-1.05.33l-1.26,1.44A.76.76,0,0,1,24.23,53.4Zm-2.95-4.81.09,0,1.76.75a1.78,1.78,0,0,1,1,1.39l.14,1.91s0,.08,0,.1l.08-.07,1.25-1.44a1.82,1.82,0,0,1,1.63-.52l1.85.46.11,0-.05-.1-1-1.63a1.79,1.79,0,0,1,0-1.71l1-1.62a.31.31,0,0,0,.05-.1l-.1,0-1.87.43a1.45,1.45,0,0,1-.3,0h0A1.79,1.79,0,0,1,25.65,46l-1.23-1.46a.59.59,0,0,0-.08-.08s0,.06,0,.11l-.17,1.9a1.77,1.77,0,0,1-1,1.37l-1.77.72Z"/><path d="M36.26,51.43a.35.35,0,0,1-.35-.34A27.89,27.89,0,0,1,89.26,39.71a.34.34,0,0,1-.18.45.34.34,0,0,1-.45-.17,27.2,27.2,0,0,0-52,11.1A.35.35,0,0,1,36.26,51.43Z"/><path d="M64.37,79.87A28,28,0,0,1,57.53,79a.35.35,0,0,1,.17-.67,27.44,27.44,0,0,0,7.18.83A27.15,27.15,0,0,0,83.12,71.7a.34.34,0,0,1,.47.5A27.78,27.78,0,0,1,64.9,79.87Z"/><path d="M62.8,0C50.18.1,34.36,7.87,30.26,12.87c-.25.31-.49.63-.72,1A9.52,9.52,0,0,1,26.16,17a11,11,0,0,0-5,6.69,18.81,18.81,0,0,1-3,5.79l-.46.69C15.55,33.37,13,43.2,13.05,50.53a49.33,49.33,0,0,0,1.26,10.22l-2.94.62-.55.12v8.56L.88,72,0,72.22l5.07,10L1.36,93.39l28.83-5.86c2.5,3,10.92,8.42,17.78,10.62a53,53,0,0,0,13.72,2.38c.73,0,1.42,0,2.07,0a19.7,19.7,0,0,0,4.8-.46l.78-.22a18.33,18.33,0,0,1,6.34-1,10.68,10.68,0,0,0,7.78-2.65A9.14,9.14,0,0,1,87.4,94c.37-.12.74-.24,1.11-.39,5.11-2,14.78-11.68,19.76-22l22.12-4.5-5.82-9.69,3-10.77-8.59,1.73V38.51L111.76,40c-.93-4.29-2.23-8.11-3.42-9.91l-.46-.69a18.81,18.81,0,0,1-3-5.79,11,11,0,0,0-5-6.69,9.52,9.52,0,0,1-3.38-3.13c-.23-.32-.47-.64-.72-1C91.67,7.87,75.85.1,63.24,0Zm.42,1.37c11.86.09,27.54,7.54,31.49,12.36.24.3.46.6.68.9a10.86,10.86,0,0,0,3.82,3.52A9.51,9.51,0,0,1,103.56,24a19.83,19.83,0,0,0,3.18,6.22l.45.69c1.12,1.68,2.35,5.34,3.22,9.44L89,44.88l-.67.14L39,55.5l-.67.14L15.64,60.46a48.45,48.45,0,0,1-1.22-9.93c-.05-6.92,2.39-16.59,4.42-19.65l.45-.69A19.83,19.83,0,0,0,22.47,24a9.51,9.51,0,0,1,4.35-5.82,10.86,10.86,0,0,0,3.82-3.52c.22-.3.44-.6.68-.9C35.27,8.91,51,1.46,62.8,1.37Zm61.54,50.2-1.66,6.07,3.47,5.79.75,1.24.9,1.51L109.69,70l2.22-2.14L113.73,66l5.06-4.89.14,0V61l0,0,0,0V49.79l6.69-1.34-.45,1.64Zm-112.57,11L117.56,40.2V60L12.19,82.41ZM4.5,88.28l2.05-6.17L3.64,76.37,3,75.11,2,73.2l8.79-1.76V84.1h0v0l7.71,1.29,3.76.64,4.53.76L3.41,91.58,4,89.78ZM88,92.36c-.34.13-.69.25-1,.36a10.66,10.66,0,0,0-4.45,2.51,9.21,9.21,0,0,1-6.74,2.29A19.37,19.37,0,0,0,69,98.58l-.77.22a23.71,23.71,0,0,1-6.44.36A51.71,51.71,0,0,1,48.4,96.85c-6.53-2.1-14.92-7.39-17.21-10.26L30.68,86A20,20,0,0,0,25.76,81L25.64,81l56.92-12.1,1.15-.24L109.89,63c-.31,1.25-.64,2.39-1,3.37C105.32,77.63,93.69,90.14,88,92.36Z"/></svg>