<?xml version="1.0" encoding="UTF-8"?><svg id="a" xmlns="http://www.w3.org/2000/svg" viewBox="0 0 130.39 100.54"><polygon points="129.31 66.65 2.39 92.48 5.81 82.16 1.02 72.7 126.57 47.55 123.84 57.53 129.31 66.65" style="fill:#a74f46;"/><path d="M63.44,.87c12.14,.09,27.89,7.6,32,12.61,1.12,1.38,1.8,2.87,4.3,4.26,2.33,1.38,4.02,3.63,4.69,6.26,.61,2.47,2.09,4.5,3.54,6.69,2.09,3.16,4.58,13,4.53,20-.11,5.46-1.03,10.88-2.72,16.08-3.66,11.41-15.37,24.06-21.31,26.38-1.63,.63-3.23,.81-5.27,2.73-1.99,1.77-4.61,2.66-7.26,2.47-2.51-.19-4.86,.57-7.35,1.26-2.19,.44-4.43,.57-6.66,.39-4.6-.19-9.15-.98-13.54-2.34-6.68-2.15-15.17-7.54-17.52-10.49-1.64-2-3.12-4.07-5.27-5.41-2.27-1.45-3.88-3.73-4.5-6.35-.57-2.79-1.77-3.88-2.74-5.37-1.55-2.78-2.6-5.81-3.11-8.95-.78-3.4-1.2-6.88-1.25-10.37-.06-7.08,2.44-16.88,4.52-20,1.4-2.23,2.88-4.26,3.48-6.72,.68-2.62,2.36-4.87,4.69-6.25,2.5-1.39,3.17-2.88,4.3-4.26C35.12,8.47,50.87,1,63,.87" style="fill:#fff;"/><rect x="1.8" y="62.52" width="125.37" height="1.37" transform="translate(-11.37 14.22) rotate(-11.57)" style="fill:#fff;"/><rect x="2.49" y="75.86" width="126.04" height="1.37" transform="translate(-13.98 14.64) rotate(-11.53)" style="fill:#fff;"/><path d="M65.74,77.77c-.18,0-.33-.13-.34-.31-.02-.19,.12-.35,.31-.37,0,0,0,0,0,0,10.01-.78,18.62-7.36,22-16.81,4.72-13.23-2.19-27.79-15.42-32.5,0,0-.01,0-.02,0-.18-.07-.27-.26-.21-.44,.07-.18,.26-.27,.44-.21,13.59,4.81,20.71,19.73,15.9,33.32-3.45,9.75-12.33,16.55-22.64,17.33h-.02Z"/><path d="M40.39,62c-.14,0-.26-.08-.31-.21-2.56-6.02-2.75-12.78-.55-18.93,.78-2.19,1.85-4.26,3.18-6.17,.1-.16,.31-.2,.47-.1,0,0,0,0,0,0,.15,.11,.19,.32,.08,.48-4.99,7.17-5.95,16.39-2.56,24.44,.07,.17,0,.37-.18,.45,0,0,0,0-.01,0-.04,.02-.09,.03-.13,.03Z"/><polygon points="118.25 60.55 11.51 83.24 11.51 62.03 118.25 39.34 118.25 60.55" style="fill:#a74f46;"/><path d="M12.19,62.58v19.82l105.37-22.4v-19.81L12.19,62.58Z" style="fill:#a74f46;"/><path d="M36.26,51.43c-.19,0-.34-.15-.35-.34,0-15.4,12.49-27.89,27.9-27.88,11,0,20.96,6.47,25.45,16.5,.08,.17,0,.37-.17,.45,0,0,0,0,0,0-.17,.08-.37,0-.45-.17,0,0,0,0,0,0-6.17-13.7-22.27-19.8-35.97-13.63-9.73,4.38-16,14.05-16.03,24.73,0,.19-.17,.35-.36,.34,0,0,0,0-.01,0Z"/><path d="M64.37,79.87c-2.31,0-4.6-.3-6.84-.87-.18-.08-.26-.28-.18-.46,.06-.14,.2-.22,.35-.21,2.35,.59,4.76,.87,7.18,.83,6.8-.11,13.31-2.78,18.24-7.46,.14-.13,.36-.12,.49,.01s.12,.36-.01,.49c-5.05,4.81-11.72,7.55-18.69,7.67h-.53Z"/><path d="M62.8,0c-12.62,.1-28.44,7.87-32.54,12.87-.25,.31-.49,.63-.72,1-.85,1.3-2.01,2.38-3.38,3.13-2.48,1.49-4.28,3.89-5,6.69-.66,2.09-1.67,4.05-3,5.79l-.46,.69c-2.15,3.2-4.7,13.03-4.65,20.36,.06,3.44,.48,6.87,1.26,10.22l-2.94,.62-.55,.12v8.56l-9.94,1.95-.88,.22,5.07,10-3.71,11.17,28.83-5.86c2.5,3,10.92,8.42,17.78,10.62,4.45,1.39,9.06,2.19,13.72,2.38h2.07c1.61,.04,3.22-.11,4.8-.46l.78-.22c2.04-.7,4.18-1.04,6.34-1,2.84,.19,5.64-.76,7.78-2.65,1.11-1.05,2.46-1.81,3.94-2.2,.37-.12,.74-.24,1.11-.39,5.11-2,14.78-11.68,19.76-22l22.12-4.5-5.82-9.69,3-10.77-8.59,1.73v-9.87l-7.22,1.49c-.93-4.29-2.23-8.11-3.42-9.91l-.46-.69c-1.33-1.74-2.34-3.7-3-5.79-.72-2.8-2.52-5.2-5-6.69-1.37-.75-2.53-1.83-3.38-3.13-.23-.32-.47-.64-.72-1C91.67,7.87,75.85,.1,63.24,0h-.44Zm.42,1.37c11.86,.09,27.54,7.54,31.49,12.36,.24,.3,.46,.6,.68,.9,.97,1.47,2.28,2.67,3.82,3.52,2.17,1.29,3.73,3.4,4.35,5.85,.68,2.25,1.76,4.35,3.18,6.22l.45,.69c1.12,1.68,2.35,5.34,3.22,9.44l-21.41,4.53-.67,.14-49.33,10.48-.67,.14-22.69,4.82c-.75-3.26-1.16-6.59-1.22-9.93-.05-6.92,2.39-16.59,4.42-19.65l.45-.69c1.42-1.86,2.49-3.96,3.18-6.19,.62-2.44,2.19-4.53,4.35-5.82,1.54-.85,2.85-2.05,3.82-3.52,.22-.3,.44-.6,.68-.9,3.95-4.85,19.68-12.3,31.48-12.39h.42Zm61.54,50.2l-1.66,6.07,3.47,5.79,.75,1.24,.9,1.51-18.53,3.82,2.22-2.14,1.82-1.86,5.06-4.89h.14v-.11h0v-11.21l6.69-1.34-.45,1.64-.41,1.48ZM12.19,62.57l105.37-22.37v19.8L12.19,82.41v-19.84Zm-7.69,25.71l2.05-6.17-2.91-5.74-.64-1.26-1-1.91,8.79-1.76v12.66h0l7.71,1.29,3.76,.64,4.53,.76-23.38,4.79,.59-1.8,.5-1.5Zm83.5,4.08c-.34,.13-.69,.25-1,.36-1.66,.46-3.19,1.32-4.45,2.51-1.85,1.64-4.28,2.46-6.74,2.29-2.32-.06-4.62,.3-6.81,1.06l-.77,.22c-2.12,.41-4.29,.53-6.44,.36-4.55-.18-9.05-.95-13.39-2.31-6.53-2.1-14.92-7.39-17.21-10.26l-.51-.59c-1.33-1.94-3-3.64-4.92-5h-.12l56.92-12.1,1.15-.24,26.18-5.66c-.31,1.25-.64,2.39-1,3.37-3.57,11.26-15.2,23.77-20.89,25.99Z"/></svg>