<svg xmlns="http://www.w3.org/2000/svg" viewBox="0 0 470 470" width="512" height="512">
  <g fill="#dac2a6">
    <path d="M447.5 254.483h-17.666V91.095c0-26.191-21.309-47.5-47.5-47.5h-9.552c-5.918-16.781-30.036-28.044-33.125-29.427a7.501 7.501 0 0 0-6.13 0c-3.089 1.383-27.207 12.646-33.125 29.427H284.6C278.133 19.666 242.487 3.04 238.064 1.06a7.499 7.499 0 0 0-6.129 0c-4.423 1.98-40.068 18.606-46.536 42.535h-15.802c-5.918-16.781-30.036-28.044-33.125-29.427a7.501 7.501 0 0 0-6.13 0c-3.089 1.383-27.207 12.646-33.125 29.427h-9.552c-26.191 0-47.5 21.309-47.5 47.5v163.388H22.5c-12.407 0-22.5 10.094-22.5 22.5s10.093 22.5 22.5 22.5h136.049c3.484 17.096 18.635 30 36.745 30h13.223v36.639a57.196 57.196 0 0 0-30.464 43.474h-25.78c-13.948 0-29.312 9.984-34.977 22.73l-9.897 22.27H92.273c-4.142 0-7.5 3.357-7.5 7.5s3.358 7.5 7.5 7.5H377.727c4.142 0 7.5-3.357 7.5-7.5s-3.358-7.5-7.5-7.5h-15.126l-9.897-22.27c-5.665-12.746-21.029-22.73-34.977-22.73h-25.78a57.2 57.2 0 0 0-30.464-43.475v-36.638h13.223c18.11 0 33.261-12.904 36.745-30H447.5c12.407 0 22.5-10.094 22.5-22.5s-10.093-22.5-22.5-22.5zM336.592 29.34c6.782 3.49 14.691 8.896 19.095 14.255h-38.188c4.403-5.36 12.313-10.767 19.093-14.255zM235.005 16.213c9.742 4.875 27.625 15.795 33.594 27.382h-67.188c5.982-11.563 23.861-22.498 33.594-27.382zM133.407 29.34c6.782 3.49 14.691 8.896 19.095 14.255h-38.188c4.403-5.36 12.314-10.767 19.093-14.255zM87.666 58.595h294.668c17.92 0 32.5 14.579 32.5 32.5v23c-13.563 1.819-21.473 8.441-28.555 14.402-7.553 6.357-13.52 11.379-26.396 11.379s-18.842-5.021-26.396-11.379c-8.299-6.985-17.706-14.902-36.055-14.902-18.347 0-27.752 7.917-36.051 14.903-7.552 6.356-13.517 11.378-26.391 11.378-12.875 0-18.84-5.021-26.393-11.379-8.298-6.985-17.704-14.902-36.052-14.902-18.347 0-27.752 7.917-36.05 14.902-4.436 3.735-8.626 7.263-14.052 9.322a7.498 7.498 0 0 0-4.838 7.012v41.285c0 4.136-3.364 7.5-7.5 7.5-4.135 0-7.5-3.364-7.5-7.5 0-13.671 0-39.44.003-41.164a7.502 7.502 0 0 0-4.838-7.132c-5.427-2.06-9.618-5.588-14.054-9.322-7.081-5.962-14.989-12.583-28.55-14.403v-23c0-17.921 14.58-32.5 32.5-32.5zm-32.5 70.688c8.032 1.574 12.983 5.717 18.89 10.689 3.871 3.259 8.146 6.857 13.552 9.689l-.002 36.454c0 12.406 10.093 22.5 22.5 22.5s22.5-10.094 22.5-22.5v-36.454c5.405-2.832 9.68-6.431 13.551-9.689 7.552-6.356 13.517-11.378 26.39-11.378 12.875 0 18.84 5.021 26.392 11.379 8.299 6.985 17.705 14.902 36.052 14.902s27.752-7.917 36.051-14.903c7.552-6.356 13.517-11.378 26.391-11.378 12.877 0 18.843 5.021 26.396 11.379 8.299 6.985 17.706 14.902 36.055 14.902s27.756-7.917 36.055-14.902c5.909-4.973 10.861-9.117 18.896-10.691v125.199H55.166V129.283zM251.13 377.838c13.623 5.605 23.132 17.631 25.643 31.757h-41.711c-4.142 0-7.5 3.357-7.5 7.5s3.358 7.5 7.5 7.5h82.666c8.058 0 17.997 6.459 21.27 13.822l7.19 16.178H123.813l7.19-16.178c3.273-7.363 13.212-13.822 21.27-13.822h52.789c4.142 0 7.5-3.357 7.5-7.5s-3.358-7.5-7.5-7.5h-11.834c2.511-14.125 12.02-26.151 25.643-31.757a7.498 7.498 0 0 0 4.646-6.936v-41.42h22.967v41.42a7.495 7.495 0 0 0 4.646 6.936zm23.576-63.355h-79.412c-9.777 0-18.114-6.271-21.21-15h121.832c-3.096 8.729-11.432 15-21.21 15zm172.794-30h-425c-4.136 0-7.5-3.364-7.5-7.5s3.364-7.5 7.5-7.5h425c4.136 0 7.5 3.364 7.5 7.5s-3.364 7.5-7.5 7.5z"/>
    <circle cx="338.186" cy="223.157" r="7.5"/>
    <circle cx="368.186" cy="193.157" r="7.5"/>
  </g>
</svg>
