<svg xmlns="http://www.w3.org/2000/svg" viewBox="0 0 470 470" width="512" height="512">
  <g fill="#dac2a6">
    <path d="M379.065 287.96a7.498 7.498 0 0 0-8.581 6.233l-21.737 137.133a7.5 7.5 0 0 0 7.416 8.675 7.501 7.501 0 0 0 7.398-6.327l21.737-137.133a7.498 7.498 0 0 0-6.233-8.581z"/>
    <path d="M331.05 287.939a7.498 7.498 0 0 0-8.247 6.669l-5.672 53.636a7.499 7.499 0 0 0 7.467 8.29 7.5 7.5 0 0 0 7.449-6.712l5.672-53.636a7.5 7.5 0 0 0-6.669-8.247z"/>
    <path d="M322.223 371.407a7.498 7.498 0 0 0-8.247 6.669l-5.672 53.635a7.499 7.499 0 0 0 7.467 8.29 7.5 7.5 0 0 0 7.449-6.712l5.672-53.635a7.5 7.5 0 0 0-6.669-8.247z"/>
    <path d="M283.027 287.938c-4.113-.231-7.667 2.955-7.886 7.093l-7.263 137.073a7.5 7.5 0 0 0 7.496 7.897 7.5 7.5 0 0 0 7.482-7.104l7.263-137.073a7.498 7.498 0 0 0-7.092-7.886z"/>
    <path d="M235.001 287.958a7.5 7.5 0 0 0-7.501 7.499l-.025 137.043a7.5 7.5 0 0 0 15 .002l.025-137.043a7.5 7.5 0 0 0-7.499-7.501z"/>
    <path d="M194.858 295.094c-.217-4.136-3.717-7.351-7.884-7.095a7.5 7.5 0 0 0-7.095 7.884l7.212 137.013a7.498 7.498 0 0 0 7.883 7.094 7.5 7.5 0 0 0 7.095-7.884l-7.211-137.012z"/>
    <path d="M147.198 294.731c-.435-4.119-4.118-7.09-8.246-6.672a7.501 7.501 0 0 0-6.672 8.246l14.448 136.983a7.501 7.501 0 0 0 14.918-1.574l-14.448-136.983z"/>
    <path d="M99.516 294.377a7.495 7.495 0 0 0-8.58-6.234 7.5 7.5 0 0 0-6.235 8.58l21.687 136.952a7.5 7.5 0 1 0 14.815-2.346L99.516 294.377z"/>
    <path d="M470 235c0-18.531-13.267-34.021-30.802-37.472a203.22 203.22 0 0 0-9.507-55.198 7.408 7.408 0 0 0-.555-1.696C402.316 59.063 325.432 0 235 0S67.684 59.063 40.863 140.635a7.39 7.39 0 0 0-.554 1.696 203.296 203.296 0 0 0-9.507 55.198C13.267 200.979 0 216.469 0 235c0 18.951 13.877 34.716 32.002 37.682L72.425 464.05a7.498 7.498 0 0 0 7.338 5.95h310.474a7.5 7.5 0 0 0 7.338-5.95l40.424-191.367C456.123 269.716 470 253.951 470 235zM235 15c80.777 0 149.887 50.861 177.022 122.235-11.872 2.301-19.165 8.408-25.744 13.945-7.553 6.357-13.519 11.379-26.395 11.379-12.877 0-18.843-5.021-26.396-11.379-8.299-6.985-17.706-14.902-36.055-14.902-18.347 0-27.752 7.918-36.051 14.903-7.552 6.356-13.517 11.378-26.391 11.378-12.875 0-18.841-5.021-26.393-11.379-8.299-6.985-17.705-14.902-36.052-14.902s-27.753 7.918-36.051 14.903c-7.552 6.356-13.517 11.378-26.39 11.378-12.874 0-18.839-5.021-26.391-11.379-6.577-5.537-13.868-11.644-25.738-13.945C85.112 65.861 154.223 15 235 15zm149.155 440H85.844L47.44 273.191h375.12L384.155 455zm47.655-196.809H38.19C25.403 258.191 15 247.788 15 235c0-12.787 10.403-23.189 23.19-23.189 4.143 0 7.5-3.357 7.5-7.5 0-18.272 2.611-35.945 7.464-52.674 9.25 1.238 14.516 5.645 20.901 11.019 8.298 6.985 17.704 14.903 36.051 14.903s27.752-7.917 36.05-14.902c7.552-6.357 13.517-11.379 26.391-11.379s18.84 5.021 26.392 11.378c8.299 6.985 17.705 14.903 36.053 14.903 18.347 0 27.752-7.918 36.051-14.903 7.552-6.356 13.517-11.378 26.391-11.378 12.877 0 18.843 5.021 26.396 11.379 8.299 6.985 17.706 14.902 36.055 14.902s27.755-7.917 36.054-14.902c6.387-5.375 11.654-9.782 20.908-11.02a188.792 188.792 0 0 1 7.464 52.674c0 4.143 3.357 7.5 7.5 7.5 12.787 0 23.19 10.402 23.19 23.189-.001 12.788-10.404 23.191-23.191 23.191z"/>
  </g>
</svg>
