<svg xmlns="http://www.w3.org/2000/svg" viewBox="0 0 445 445" width="512" height="512">
  <g fill="#dac2a6">
    <path d="M437.5 378.232H420V199.099c0-15.163-12.337-27.5-27.5-27.5H260.453c10.883-10.166 17.705-24.626 17.705-40.659 0-23.985-19.513-43.498-43.498-43.498-1.333 0-2.656.082-3.973.202 4.575-31.555 31.793-55.876 64.595-55.876 4.143 0 7.5-3.357 7.5-7.5s-3.357-7.5-7.5-7.5c-41.129 0-75.115 31.095-79.729 71.007a43.69 43.69 0 0 0-5.213-.333c-23.985 0-43.498 19.513-43.498 43.498 0 16.032 6.822 30.493 17.705 40.659H47.5c-12.406 0-22.5 10.094-22.5 22.5 0 9.499 5.92 17.636 14.262 20.931-.553 1.889-1.378 3.414-2.352 5.206-2.187 4.024-4.91 9.034-4.91 18.299s2.723 14.275 4.91 18.301c1.794 3.3 3.09 5.684 3.09 11.137s-1.296 7.837-3.09 11.138c-2.188 4.024-4.91 9.034-4.91 18.301 0 9.266 2.723 14.275 4.91 18.301 1.794 3.3 3.09 5.684 3.09 11.137 0 5.454-1.296 7.839-3.09 11.14-2.188 4.025-4.91 9.035-4.91 18.303 0 9.267 2.723 14.276 4.91 18.302.692 1.273 1.308 2.411 1.806 3.64H7.5c-4.143 0-7.5 3.357-7.5 7.5s3.357 7.5 7.5 7.5h4.342l4.326 15.138c3.182 11.138 14.748 19.862 26.332 19.862h360c11.584 0 23.15-8.725 26.333-19.862l4.325-15.138h4.342c4.143 0 7.5-3.357 7.5-7.5s-3.357-7.503-7.5-7.503zM181.842 130.939c0-15.714 12.784-28.498 28.498-28.498 3.305 0 6.543.562 9.627 1.668.024.009.05.011.074.02.359.125.729.224 1.111.293.059.011.119.018.178.027a7.47 7.47 0 0 0 1.156.099 7.65 7.65 0 0 0 1.183-.099c.06-.01.119-.016.178-.027a7.464 7.464 0 0 0 1.111-.293c.024-.008.05-.011.074-.02a28.434 28.434 0 0 1 9.627-1.668c15.714 0 28.498 12.784 28.498 28.498 0 22.419-18.239 40.658-40.658 40.658s-40.657-18.239-40.657-40.658zM47.5 186.598l345 .001c6.893 0 12.5 5.607 12.5 12.5v179.134h-15V209.099c0-4.143-3.357-7.5-7.5-7.5l-335-.001c-4.136 0-7.5-3.364-7.5-7.5s3.364-7.5 7.5-7.5zm2.59 180.833c-1.794-3.301-3.09-5.686-3.09-11.14 0-5.455 1.296-7.84 3.09-11.141 1.508-2.775 3.27-6.019 4.219-10.802H352.5c4.143 0 7.5-3.357 7.5-7.5s-3.357-7.5-7.5-7.5H54.309c-.949-4.782-2.711-8.026-4.219-10.801-1.794-3.3-3.09-5.684-3.09-11.137s1.296-7.838 3.09-11.139c1.508-2.774 3.27-6.018 4.219-10.8H104c4.143 0 7.5-3.357 7.5-7.5s-3.357-7.5-7.5-7.5H54.309c-.949-4.782-2.711-8.026-4.219-10.801-1.794-3.3-3.09-5.684-3.09-11.137s1.296-7.837 3.09-11.137c1.508-2.775 3.27-6.019 4.219-10.801l320.691.004v161.634H54.309c-.949-4.783-2.711-8.027-4.219-10.802zm364.32 36.818c-1.344 4.701-7.021 8.983-11.91 8.983h-360c-4.89 0-10.566-4.282-11.909-8.983l-3.147-11.017h390.114l-3.148 11.017z"/>
    <path d="M352.5 260.473H134c-4.143 0-7.5 3.357-7.5 7.5s3.357 7.5 7.5 7.5h218.5c4.143 0 7.5-3.357 7.5-7.5s-3.357-7.5-7.5-7.5z"/>
  </g>
</svg>
