<svg xmlns="http://www.w3.org/2000/svg" width="14.079" height="14.079" viewBox="0 0 372.52 372.52" shape-rendering="geometricPrecision" text-rendering="geometricPrecision" image-rendering="optimizeQuality" fill-rule="evenodd" clip-rule="evenodd">
  <path d="M364.17 294.41l-57.53-57.54c-11.46-11.42-30.44-11.07-42.29.79l-28.99 28.98c-1.83-1-3.72-2.06-5.72-3.18-18.3-10.14-43.35-24.04-69.71-50.42-26.44-26.44-40.35-51.53-50.53-69.85-1.07-1.94-2.1-3.81-3.11-5.59l19.45-19.42 9.56-9.58c11.88-11.88 12.21-30.85.77-42.3L78.54 8.75c-11.43-11.43-30.41-11.08-42.29.8L20.04 25.86l.44.44c-5.44 6.94-9.98 14.94-13.36 23.57C4 58.08 2.06 65.92 1.18 73.77c-7.6 62.98 21.18 120.54 99.28 198.65 107.96 107.96 194.96 99.81 198.71 99.41 8.17-.98 16.01-2.93 23.97-6.02 8.55-3.34 16.55-7.88 23.48-13.31l.36.32 16.42-16.09c11.85-11.88 12.2-30.86.77-42.32z" fill="#dac2a6"/>
</svg>
