<svg xmlns="http://www.w3.org/2000/svg" width="14.079" height="14.079" viewBox="0 0 372.52 372.52" shape-rendering="geometricPrecision" text-rendering="geometricPrecision" image-rendering="optimizeQuality" fill-rule="evenodd" clip-rule="evenodd">
  <path d="M186.26 0c102.87 0 186.26 83.39 186.26 186.26 0 102.87-83.39 186.26-186.26 186.26C83.39 372.52 0 289.13 0 186.26 0 83.39 83.39 0 186.26 0zm0 62.55c13.56 0 24.66 11.09 24.66 24.65v74.4h74.39c13.56 0 24.66 11.1 24.66 24.66s-11.1 24.66-24.66 24.66h-99.05c-.21 0-.42 0-.63-.01-.22 0-.43-.01-.63-.02-.21-.01-.42-.03-.63-.04l-.62-.06c-.21-.02-.41-.04-.62-.07l-.61-.09c-.21-.03-.41-.06-.61-.1-.2-.04-.4-.07-.6-.11-.2-.05-.4-.09-.6-.14-.2-.04-.4-.09-.59-.14-.2-.05-.4-.11-.59-.16-.2-.06-.39-.11-.58-.18-.2-.06-.39-.12-.58-.18-.19-.07-.38-.13-.57-.2-.18-.07-.37-.15-.56-.22-.19-.07-.37-.15-.56-.23l-.54-.24c-.19-.08-.37-.17-.55-.25-.18-.09-.35-.18-.53-.27-.18-.09-.35-.18-.53-.28-.17-.09-.35-.19-.52-.29l-.51-.3c-.17-.11-.34-.21-.51-.32-.16-.11-.33-.22-.49-.33-.17-.11-.33-.22-.49-.34-.16-.11-.32-.23-.48-.35-.16-.12-.31-.24-.47-.36-.16-.12-.31-.24-.46-.37-.15-.13-.31-.25-.45-.38-.15-.13-.3-.26-.45-.4-.14-.13-.29-.26-.43-.4s-.29-.28-.43-.42c-.14-.13-.27-.28-.41-.42-.14-.14-.27-.29-.4-.43-.14-.15-.27-.3-.4-.45-.13-.14-.25-.3-.38-.45-.13-.15-.25-.31-.37-.46-.12-.16-.25-.31-.36-.47-.12-.16-.24-.32-.35-.48-.12-.16-.23-.32-.34-.49-.11-.16-.22-.33-.33-.49-.11-.17-.21-.34-.32-.51l-.3-.51c-.1-.17-.2-.35-.29-.52-.1-.18-.19-.35-.28-.53-.09-.18-.18-.35-.27-.53-.08-.18-.17-.36-.25-.55-.08-.18-.16-.36-.24-.55-.08-.18-.16-.36-.23-.55-.08-.19-.15-.38-.22-.56-.07-.19-.13-.38-.2-.57-.06-.19-.13-.39-.19-.58-.06-.19-.11-.38-.17-.58-.05-.19-.11-.39-.16-.59-.05-.19-.1-.39-.14-.59-.05-.2-.09-.4-.14-.6-.04-.2-.08-.4-.11-.6-.04-.2-.07-.4-.1-.61l-.09-.61c-.03-.21-.05-.41-.07-.62l-.06-.62c-.01-.21-.03-.42-.04-.63-.01-.2-.02-.41-.02-.63-.01-.21-.01-.42-.01-.63V87.2c0-13.56 11.1-24.65 24.66-24.65z" fill="#dac2a6"/>
</svg>
