<svg xmlns="http://www.w3.org/2000/svg" width="15.039" height="13.76" viewBox="0 0 397.92 364.06" shape-rendering="geometricPrecision" text-rendering="geometricPrecision" image-rendering="optimizeQuality" fill-rule="evenodd" clip-rule="evenodd">
  <path d="M395.89-.63a5.963 5.963 0 0 0-6.43-.92L3.45 177.8a5.941 5.941 0 0 0-3.44 5.33 5.934 5.934 0 0 0 3.33 5.4l109.24 53.62c2 .98 4.39.76 6.18-.58l106.21-79.38-83.38 85.76a5.96 5.96 0 0 0-1.67 4.6l8.3 108.12c.19 2.4 1.79 4.45 4.08 5.2a5.92 5.92 0 0 0 6.36-1.77l57.98-67.18 71.68 34.24c1.55.75 3.35.78 4.93.09a5.943 5.943 0 0 0 3.3-3.67L397.64 5.62c.71-2.24.02-4.7-1.75-6.25z" fill="#dac2a6"/>
</svg>
