<svg xmlns="http://www.w3.org/2000/svg" width="15.999" height="15.999" viewBox="0 0 423.32 423.32" shape-rendering="geometricPrecision" text-rendering="geometricPrecision" image-rendering="optimizeQuality" fill-rule="evenodd" clip-rule="evenodd">
  <path fill="#f4e5d3" d="M0 0h423.33v423.33H0z"/>
  <path d="M275.53 164.7c-9.3-9.3-21.67-14.43-34.83-14.43-10.61 0-20.7 3.33-29.09 9.5-8.39-6.17-18.49-9.5-29.1-9.5-13.16 0-25.52 5.13-34.83 14.43-19.2 19.2-19.2 50.45 0 69.65l58.2 58.19a8.067 8.067 0 0 0 5.72 2.38h.02c2.14 0 4.2-.86 5.72-2.38l58.19-58.19c9.3-9.3 14.42-21.67 14.42-34.82 0-13.16-5.12-25.53-14.42-34.83zm62.45 60.03c1.5-14.38.53-28.82-2.88-42.92-3.39-14.01-9.05-27.23-16.86-39.3a126.052 126.052 0 0 0-29.6-31.94l-.07-.05a127.12 127.12 0 0 0-20.87-12.89l-.05-.02c-14.17-6.97-29.25-11.19-44.83-12.56-15.05-1.33-30.11.04-44.75 4.06-29.64 8.14-55.27 26.67-72.19 52.18-.22.34-.42.69-.58 1.04-6.02 9.2-10.82 19.15-14.28 29.59l-.15.42c-1.1 3.37-2.05 6.78-2.85 10.21l-.07.3c-.07.28-.13.56-.2.85l-.16.74-.09.4c-.75 3.47-1.36 6.98-1.82 10.52-.02.15-.04.31-.05.46-1.36 10.9-1.29 21.92.19 32.8v.07c0 .38.03.77.09 1.15 4.26 29.99 19.23 57.53 42.14 77.56 11.33 9.9 24.16 17.64 38.15 23 14.48 5.54 29.76 8.36 45.41 8.36 17.14 0 33.77-3.36 49.43-9.97 15.11-6.4 28.69-15.55 40.35-27.22 11.66-11.66 20.82-25.24 27.21-40.36 3.13-7.41 5.54-15.03 7.2-22.83.97-4.5 1.7-9.05 2.18-13.65zm-18.01 10.16c-1.89 8.8-4.87 17.34-8.89 25.53-6.6 13.43-15.63 25.16-26.83 34.86-10.81 9.36-23.2 16.47-36.83 21.13-13.64 4.64-27.79 6.59-42.07 5.78-14.8-.84-29.1-4.61-42.54-11.21l-.03-.01c-12.24-6.02-23.12-14.1-32.32-24.01a110.746 110.746 0 0 1-21.01-32.7c-8.3-19.9-10.6-41.64-6.8-62.54l.02-.08c.05-.29.1-.57.16-.86l.11-.56.08-.4c.06-.33.13-.65.2-.98v-.01c4.88-23.11 17.1-44.16 34.97-59.99 9.83-8.72 21.18-15.67 33.45-20.41 12.73-4.92 26.16-7.42 39.93-7.42l.04.01c7.15 0 14.32.69 21.27 2.04l.18.03h.01a109.93 109.93 0 0 1 35.42 13.62 111.631 111.631 0 0 1 28.32 24.28c8.09 9.74 14.42 20.67 18.77 32.51 4.52 12.24 6.8 25.12 6.8 38.29 0 7.84-.81 15.56-2.41 23.1zm-108.36 40.46l-52.46-52.46c-12.89-12.88-12.89-33.85 0-46.73 6.24-6.24 14.54-9.68 23.36-9.68 8.83 0 17.13 3.44 23.37 9.68a8.09 8.09 0 0 0 5.73 2.38c2.15 0 4.21-.86 5.73-2.38 6.24-6.24 14.54-9.68 23.36-9.68 8.83 0 17.12 3.44 23.36 9.68 6.25 6.24 9.68 14.54 9.68 23.36 0 8.83-3.43 17.13-9.68 23.37l-52.45 52.46z" fill="#fff"/>
</svg>
