<svg xmlns="http://www.w3.org/2000/svg" width="9.599" height="9.599" viewBox="0 0 253.98 253.98" shape-rendering="geometricPrecision" text-rendering="geometricPrecision" image-rendering="optimizeQuality" fill-rule="evenodd" clip-rule="evenodd">
  <path d="M190.85 80.04c-9.3-9.3-21.67-14.43-34.82-14.43-10.61 0-20.71 3.33-29.1 9.5-8.39-6.17-18.49-9.5-29.1-9.5-13.15 0-25.52 5.12-34.82 14.43-19.21 19.2-19.21 50.45 0 69.66l58.19 58.19a8.092 8.092 0 0 0 5.72 2.37h.02c2.15 0 4.21-.85 5.72-2.37l58.19-58.19c9.31-9.31 14.43-21.68 14.43-34.83 0-13.16-5.12-25.53-14.43-34.83zm61.31 68.41a126.76 126.76 0 0 0 0-43.01c-2.45-14.2-7.21-27.77-14.2-40.34a125.964 125.964 0 0 0-27.4-33.85l-.06-.06a127.816 127.816 0 0 0-19.97-14.26l-.04-.02c-13.68-7.89-28.44-13.11-43.9-15.52-14.93-2.33-30.04-1.98-44.92 1.05-30.12 6.15-56.94 22.92-75.52 47.25-.28.36-.52.74-.72 1.13-6.55 8.7-11.94 18.19-16.06 28.24-.1.2-.19.4-.27.61-2 4.99-3.68 10.08-5.02 15.24l-.2.76-.05.22c-1.23 4.85-2.18 9.8-2.83 14.81-.03.23-.05.47-.06.7-1.32 10.74-1.25 21.64.2 32.41v.22c0 .39.03.78.08 1.16 4.27 29.99 19.24 57.52 42.15 77.56 11.33 9.9 24.17 17.64 38.15 23 14.48 5.54 29.76 8.36 45.41 8.36 17.14 0 33.77-3.36 49.43-9.98 15.12-6.39 28.69-15.55 40.35-27.21 11.67-11.66 20.83-25.24 27.22-40.36a126.24 126.24 0 0 0 6.34-19.11c.74-2.97 1.37-5.97 1.89-8.99v-.01zm-17.6 5.04c-2.49 10.05-6.39 19.7-11.63 28.78-7.48 12.96-17.27 24.06-29.09 32.99-11.42 8.62-24.26 14.89-38.17 18.62-13.92 3.73-28.17 4.72-42.36 2.96-14.71-1.82-28.73-6.54-41.7-14.02l-.03-.02c-11.81-6.82-22.12-15.61-30.64-26.12a110.776 110.776 0 0 1-18.78-34.04c-6.92-20.31-7.79-42.05-2.67-62.56.05-.23.11-.46.17-.69l.03-.1c5.48-21.18 17.21-40.4 33.82-55.11 9.83-8.72 21.18-15.67 33.45-20.41 12.73-4.93 26.17-7.42 39.93-7.42h.04c7.15 0 14.32.69 21.28 2.05l.17.03h.01c12.5 2.44 24.5 7.06 35.42 13.62a111.477 111.477 0 0 1 28.33 24.28c8.09 9.74 14.41 20.67 18.77 32.51 4.51 12.24 6.8 25.12 6.8 38.29 0 8.87-1.03 17.59-3.08 26.06v.03l-.07.26v.01zM126.93 190.7l-52.46-52.47c-12.88-12.88-12.88-33.84 0-46.73 6.24-6.24 14.54-9.68 23.36-9.68 8.83 0 17.13 3.44 23.37 9.68a8.108 8.108 0 0 0 5.73 2.38c2.15 0 4.21-.86 5.73-2.38 6.24-6.24 14.54-9.68 23.37-9.68 8.82 0 17.12 3.44 23.36 9.68 6.24 6.24 9.68 14.54 9.68 23.37 0 8.82-3.44 17.12-9.68 23.36l-52.46 52.47z" fill="#af804d"/>
</svg>
