<svg xmlns="http://www.w3.org/2000/svg" width="15.999" height="15.999" viewBox="0 0 423.32 423.32" shape-rendering="geometricPrecision" text-rendering="geometricPrecision" image-rendering="optimizeQuality" fill-rule="evenodd" clip-rule="evenodd">
  <defs>
    <style>
      .fil1{fill:#fff}
    </style>
  </defs>
  <g id="Camada_x0020_1">
    <path fill="#af804d" d="M0 0h423.33v423.33H0z"/>
    <g id="_1404888391584">
      <path class="fil1" d="M211.66 313.26c55.96 0 101.6-45.47 101.6-101.6 0-56.13-45.64-101.6-101.6-101.6-55.96 0-101.6 45.64-101.6 101.6 0 55.96 45.64 101.6 101.6 101.6zm0-188.86c48.09 0 87.26 39.17 87.26 87.26s-39.17 87.26-87.26 87.26-87.26-39.17-87.26-87.26 39.17-87.26 87.26-87.26z"/>
      <path class="fil1" d="M173.54 248.73c1.4 1.4 3.15 2.1 5.07 2.1 1.92 0 3.67-.7 5.07-2.1l27.98-27.98 27.98 27.98c1.4 1.4 3.15 2.1 5.07 2.1 1.92 0 3.67-.7 5.07-2.1a7.17 7.17 0 0 0 0-10.14l-27.98-27.98 27.98-27.98a7.17 7.17 0 0 0-10.14-10.14l-27.98 27.98-27.98-27.98a7.17 7.17 0 0 0-10.14 10.14l27.98 27.98-27.98 27.98a7.17 7.17 0 0 0 0 10.14z"/>
    </g>
  </g>
</svg>
