<svg xmlns="http://www.w3.org/2000/svg" width="17.279" height="17.279" viewBox="0 0 457.18 457.18" shape-rendering="geometricPrecision" text-rendering="geometricPrecision" image-rendering="optimizeQuality" fill-rule="evenodd" clip-rule="evenodd">
  <defs>
    <style>
      .fil0{fill:#af804d}
    </style>
  </defs>
  <g id="Camada_x0020_1">
    <g id="_2399409851984">
      <path class="fil0" d="M435.66 247.57h-17.21V88.36c0-25.52-20.77-46.28-46.29-46.28h-9.31c-5.77-16.36-29.27-27.33-32.28-28.68-1.9-.85-4.07-.85-5.97 0-3.01 1.35-26.51 12.32-32.28 28.68h-15.4c-6.3-23.32-41.03-39.52-45.34-41.45a7.33 7.33 0 0 0-5.98 0c-4.31 1.93-39.04 18.13-45.34 41.45h-15.4c-5.77-16.36-29.27-27.33-32.28-28.68-1.9-.85-4.07-.85-5.97 0-3.01 1.35-26.52 12.32-32.28 28.68h-9.31c-25.52 0-46.29 20.76-46.29 46.28v159.21H21.52C9.43 247.57-.4 257.41-.4 269.5s9.83 21.92 21.92 21.92h132.57c3.4 16.66 18.16 29.24 35.81 29.24h12.88v35.7a55.713 55.713 0 0 0-29.68 42.36h-25.12c-13.59 0-28.57 9.73-34.09 22.15l-9.64 21.7H89.51c-4.04 0-7.31 3.27-7.31 7.31 0 4.04 3.27 7.31 7.31 7.31H367.67c4.04 0 7.31-3.27 7.31-7.31 0-4.04-3.27-7.31-7.31-7.31h-14.74l-9.64-21.7c-5.52-12.42-20.5-22.15-34.09-22.15h-25.12a55.713 55.713 0 0 0-29.68-42.36v-35.7h12.88c17.65 0 32.41-12.58 35.81-29.24h132.57c12.09 0 21.92-9.83 21.92-21.92 0-12.09-9.83-21.93-21.92-21.93zM327.59 28.19c6.61 3.4 14.31 8.66 18.6 13.89h-37.21c4.29-5.23 12-10.5 18.61-13.89zm-99-12.8c9.5 4.75 26.92 15.39 32.74 26.69h-65.47c5.83-11.27 23.25-21.93 32.73-26.69zm-99 12.8c6.61 3.4 14.32 8.66 18.61 13.89h-37.21c4.29-5.23 12-10.5 18.6-13.89zm-44.57 28.5h287.14c17.46 0 31.67 14.21 31.67 31.67v22.41c-13.22 1.78-20.93 8.23-27.83 14.04-7.36 6.19-13.17 11.09-25.72 11.09-12.54 0-18.36-4.9-25.72-11.09-8.09-6.81-17.25-14.52-35.13-14.52-17.88 0-27.05 7.71-35.13 14.52-7.36 6.19-13.17 11.09-25.72 11.09-12.55 0-18.36-4.9-25.72-11.09-8.08-6.81-17.25-14.52-35.13-14.52-17.88 0-27.04 7.71-35.13 14.52-4.32 3.64-8.4 7.07-13.69 9.08a7.315 7.315 0 0 0-4.72 6.83v40.23c0 4.03-3.27 7.31-7.3 7.31-4.03 0-7.31-3.28-7.31-7.31v-40.11c.05-3.03-1.8-5.84-4.71-6.95-5.29-2.01-9.38-5.44-13.7-9.08-6.9-5.81-14.6-12.26-27.82-14.04V88.36c0-17.46 14.21-31.67 31.67-31.67zm-31.67 68.88c7.83 1.54 12.65 5.57 18.41 10.42 3.77 3.18 7.94 6.68 13.2 9.44v35.52c0 12.09 9.84 21.93 21.93 21.93s21.92-9.84 21.92-21.93v-35.52c5.27-2.76 9.44-6.27 13.21-9.44 7.36-6.19 13.17-11.09 25.71-11.09 12.55 0 18.36 4.9 25.72 11.09 8.09 6.81 17.25 14.52 35.13 14.52 17.88 0 27.04-7.71 35.13-14.52 7.36-6.19 13.17-11.09 25.72-11.09 12.55 0 18.36 4.9 25.72 11.09 8.09 6.81 17.25 14.52 35.13 14.52 17.88 0 27.05-7.71 35.14-14.52 5.75-4.84 10.58-8.88 18.41-10.42v122H53.35v-122zm190.96 242.21c13.27 5.46 22.54 17.18 24.99 30.94h-40.65c-4.04 0-7.31 3.27-7.31 7.31 0 4.04 3.27 7.31 7.31 7.31h80.55c7.86 0 17.54 6.29 20.73 13.47l7.01 15.76h-216.7l7.01-15.76c3.19-7.18 12.88-13.47 20.73-13.47h51.44c4.03 0 7.31-3.27 7.31-7.31 0-4.04-3.28-7.31-7.31-7.31h-11.53c2.44-13.76 11.71-25.48 24.98-30.94a7.317 7.317 0 0 0 4.53-6.76v-40.36h22.38v40.36c0 2.96 1.79 5.63 4.53 6.76zm22.97-61.74H189.9c-9.53 0-17.65-6.11-20.67-14.62h118.72c-3.02 8.51-11.14 14.62-20.67 14.62zm168.38-29.23H21.52c-4.03 0-7.31-3.28-7.31-7.31 0-4.03 3.28-7.31 7.31-7.31h414.14c4.03 0 7.31 3.28 7.31 7.31 0 4.03-3.28 7.31-7.31 7.31z"/>
      <circle class="fil0" cx="329.14" cy="217.05" r="7.31"/>
      <circle class="fil0" cx="358.37" cy="187.82" r="7.31"/>
    </g>
  </g>
</svg>
