<svg xmlns="http://www.w3.org/2000/svg" width="53.439" height="5.759" viewBox="0 0 1413.92 152.38" shape-rendering="geometricPrecision" text-rendering="geometricPrecision" image-rendering="optimizeQuality" fill-rule="evenodd" clip-rule="evenodd">
  <path d="M159.52 28.26c0 30.88-33.62 90.33-51.59 113.47-7.43-12.25-22.03-24.47-37.46-37.39C45.81 83.68 20.3 62.33 18.49 37.25c-.65-8.95 1.33-15.97 5.89-20.87 4.33-4.65 10.09-6.31 14.03-6.31 12.36 0 25.63 24.32 36.29 43.86 8.94 16.39 14.66 26.43 19.37 26.43 2.08 0 4.59-2.22 4.59-4.99 0-6.9 25.96-62.13 51.07-62.13 1 0 9.79.42 9.79 15.02zm488.13 89.83c10.79-10.8 15.88-23.37 15.88-32.53 0-5.84-2.48-10.88-9.07-10.88-5.15 0-11.96 9.63-11.96 21.94 0 7.1 1.82 14.84 5.15 21.47zm200.33-44.12c-13.84 0-15.51 20.91-15.51 29.78 0 9.03 1.51 30.26 15.18 30.26s15.34-21.23 15.34-30.26c0-8.87-1.5-29.78-15.01-29.78zm466.73 1.22c-6.16 0-11.66 2.37-15.66 6.48v25.96c0 8.87.84 26.12 15.33 26.12 13.49 0 14.99-21.21 14.99-30.08 0-16.93-4.16-28.48-14.66-28.48zm-240.85-1.27c-13.83 0-15.5 20.89-15.5 29.75 0 9.03 1.5 30.24 15.16 30.24s15.32-21.21 15.32-30.24c0-8.86-1.5-29.75-14.98-29.75zM144.98 3.22c-17.34 0-38.78 16.9-51.47 40.41C82.03 19.03 58.41-.01 39.08-.01 14.14-.01.68 19.71.68 38.26c0 46.15 60.04 83.6 92.3 103.72 6.75 4.22 12.09 7.55 15.46 10.07l.46.34.49-.3c41.99-26.09 65.22-86.02 65.22-117.47 0-19.66-11.08-31.4-29.63-31.4zM960.04 141.4c-5.06 0-9.63-4.25-9.63-9.31 0-5.06 4.57-9.31 9.63-9.31 5.22 0 9.8 4.25 9.8 9.31 0 5.06-4.58 9.31-9.8 9.31zm260.4-47.26v28.46c0 9.38 5.19 11.76 12.22 11.76 3.22 0 5.39 7.27-7.36 7.27-22.43 0-24.61-10.13-24.61-27.3v-25.6c0-9.54-1.34-13.19-6.53-13.19-4.18 0-9.03 3.65-13.05 8.58v53.87c0 2.07-1.84 3.66-4.02 3.66h-11.72c-2.17 0-4.01-1.59-4.01-3.66V86.82c0-8.26-2.51-11.28-6.2-11.28-5.02 0-9.37 3.81-13.22 8.58v53.87c0 2.07-1.84 3.66-4.01 3.66h-11.89c-2.17 0-4.01-1.59-4.01-3.66V70.02c0-2.07 1.84-3.66 4.01-3.66h11.89c2.17 0 4.01 1.59 4.01 3.66v5.52c4.85-5.25 10.71-9.38 19.75-9.38 8.04 0 15.9 2.54 18.25 10.97 5.35-6.36 11.54-10.97 20.92-10.97 18.58 0 19.58 11.29 19.58 27.98zm-595.06 8.16c0-21.15 13.46-36.14 27.92-36.14 16.11 0 22.27 12.04 22.27 18.8 0 13.73-3.52 24.06-22.77 40.55 4.99 6.16 16.38 6.8 22.7 6.8 4.82 0 9.64-1.19 14.17-2.83V69.79c0-2.06 1.83-3.65 3.83-3.65h12.01c2 0 3.83 1.59 3.83 3.65v5.77c6.34-6.18 12.17-9.34 21.18-9.34 19.35 0 20.68 12.82 20.68 27.87v28.35c0 9.35 5.17 9.7 12.17 9.7 4 0 8.52-1 12.67-2.28-1.67-4.83-2.19-11.41-2.19-20.16 0-11.19 1.16-22.7 1.82-34.21h-7.3c-1.83-.78-2.71-3.01-2.71-4.9 0-1.89 1.05-3.79 2.71-4.58h8.46l6.31-17.16c.66-2.05 1.99-3.78 3.98-3.78h6.64c1.99 0 3.82 1.1 3.82 2.99-.66 6.94-1.33 11.81-1.99 17.95h14.11c1.65.79 3.09 2.69 3.09 4.58 0 1.89-1.1 4.12-3.09 4.9h-14.78c-1.49 16.87-1.99 29.17-1.99 46.51 0 9.3 5.31 10.13 12.12 10.13 4.64 0 10.17-1.44 14.92-3.07-4.76-6.64-7.01-15.41-7.01-25.15 0-21.06 10.68-37.7 34.85-37.7 23.62 0 34.33 16.09 34.68 36.65 7.23-3.41 11.57-8.53 13.42-11.89l.24-.1c-1.59-3.52-2.29-7.18-2.23-11.05.02-1.49.17-5.22.87-8.94.51-2.69 2.89-4.64 5.64-4.64h8.64c2.64 0 4.72 2.33 4.36 4.95-.82 5.84-.99 13.65 1.79 16.83l-.05-.02c9.75 9.56 21.35 20.54 21.18 31.33-.24 15.31-16.1 24-28.24 22.03-9.6-1.57-15.1-5.53-16.62-11.8-.46-1.88.67-3.79 2.5-4.43 1.35-.48 2.84.19 3.36 1.53 2.19 5.59 6.98 7.67 11.84 8.07 5.47.44 12.34-3.16 12.45-10.42.13-8.21-13.82-19.32-17.59-22.86l-1.71-1.69c-4.11 4.13-10.61 8.75-20.21 10.8-2.07 17.95-12.87 31.21-34.32 31.21-9.61 0-17.08-2.63-22.6-7.13-2.83 4.35-19.58 6.59-27.47 6.59-7.69 0-12.99-1.16-16.61-3.92-5.96 2.94-18.61 4.46-25.1 4.46-22.34 0-24.51-10.46-24.51-27.56V88.7c0-9.66-3.17-13.14-7.5-13.14-4.67 0-10.84 3.8-14.68 8.55v53.77c0 2.06-1.83 3.64-3.83 3.64H693.5c-2 0-3.83-1.58-3.83-3.64v-1.38c-7.09 2.64-17.05 4.95-25.07 4.95-7.78 0-15.69-1.59-22.2-5.51-4.29 3.85-19.8 5.83-27.23 5.83-22.35 0-24.51-10.46-24.51-27.56V88.7c0-9.5-1.34-13.14-6.51-13.14-4.17 0-9 3.64-13 8.55v53.77c0 2.06-1.84 3.64-4.01 3.64h-11.67c-2.17 0-4-1.58-4-3.64V86.8c0-8.23-2.5-11.24-6.17-11.24-5 0-9.34 3.8-13.17 8.55v53.77c0 2.06-1.84 3.64-4.01 3.64h-11.84c-1.55 0-2.94-.81-3.6-2.03-5.51 1.49-11.57 2.28-17.95 2.28-10.51 0-20.35-2.85-22.68-11.25-6.34 6.81-14.18 11.25-22.35 11.25-21.01 0-29.35-20.59-29.35-37.86 0-21.06 10.68-37.44 34.86-37.7 5.63-.05 10.5.99 14.71 2.75.32-1.49 1.25-2.53 3.19-2.53l13.32.05c3.91.01 3.17 2.96 3.31 6.41 0 0 .26 21.48.15 32.95v16.6c0 9.35 5.34 10.03 12.17 10.03 3.22 0 6.78-.81 10.21-1.86l-.1-60.82c0-2.06 2.22-3.65 4.38-3.65h11.84c2.17 0 4 1.59 4 3.65l-.26 5.77c4.83-5.23 10.66-9.35 19.67-9.35 8.01 0 15.84 2.54 18.18 10.93 5.33-6.33 11.5-10.93 20.84-10.93 18.51 0 19.51 11.25 19.51 27.88v28.35c0 9.35 5.18 10.16 12.18 9.96 5.53-.16 9.14-1.38 12.46-2.71-6.37-7.26-9.59-17.27-9.59-27.39zm-155.17 21.57c-4 4.59-10.17 8.71-16.01 8.71-13.5 0-14.34-19.96-14.34-28.83 0-8.87 1.5-29.78 15.18-29.78 14.34 0 15.17 17.11 15.17 25.98v23.92zm787.54 17.74c-5.06 0-9.64-4.25-9.64-9.31 0-5.06 4.58-9.3 9.64-9.3 5.22 0 9.8 4.24 9.8 9.3 0 5.06-4.58 9.31-9.8 9.31zm-868.5-53.88c.01 0 .04.01.05.01-4.3-3.55-4.29-12.08-3.82-17.31.21-2.32-1.6-4.31-3.93-4.3-2.99.01-6.85.03-9.49.02-1.93-.01-3.66 1.27-4.15 3.14-1.35 5.19-1.25 11.49-.92 13.79.54 3.73 1.76 7.13 3.79 10.27-2.34 22.77-12.15 38.96-20.44 38.96-3.75 0-3.76-1.83-3.76-10.23v-16.52c.11-11.42-.15-32.8-.15-32.8-.13-3.43.59-6.6-3.29-6.61l-13.25-.05c-1.92 0-2.84 1.24-3.17 2.69 0 .03-.04.05-.07.04-4.17-1.74-9.01-2.77-14.59-2.71-24.06.25-34.69 16.55-34.69 37.52 0 17.18 8.3 37.68 29.21 37.68 8.11 0 15.88-4.39 22.18-11.13.03-.03.07-.02.09.02 4.2 9.85 10.77 11.31 18.01 11.3 21.73-.03 31.14-29.86 33.47-38.82l.11.08c4.28 2.88 19.81 11.6 21 19.71 1.05 7.18-4.3 11.83-9.77 12.27-4.12.33-7.92-3.45-9.67-6.16-.79-1.22-2.43-1.53-3.56-.61-.12.09-.24.19-.36.29-1.37 1.13-1.83 3.07-1.03 4.66 1.69 3.37 5.86 8.53 15.6 8.53 12.28 0 24.71-11.11 22.49-26.24-1.56-10.67-14.75-19.62-25.89-27.49zM327 123.5c-3.98 4.57-10.01 8.67-15.81 8.67-13.45 0-14.4-19.86-14.4-28.69 0-8.83 1.49-29.64 15.1-29.64 14.28 0 15.11 17.03 15.11 25.86v23.8zm1082.69-43.73c-.17.95-1.16 1.58-2.17 1.58-.49 0-.99-.15-1.33-.47-3.16-3.32-6.99-5.54-10.99-5.54-4.16 0-8.49 2.53-12.83 8.7v54c0 2.06-1.46 3.44-3.62 3.44h-11.99c-2.01 0-4.04-1.38-4.04-3.44V69.98c0-2.06 1.83-3.64 3.83-3.64h12c3.49 0 3.82 2.69 3.82 5.7v3.3c4.84-6.17 11.72-9.05 19.72-9.05 3.15 0 11.15.95 11.15 3.33 0 .15 0 .31-.16.63l-3.39 9.52zm-95.48 61.73c-23.48 0-34.8-12.18-34.8-34.03V34.03c0-2.21 1.66-3.8 3.83-3.8h11.99c2.16 0 3.82 1.59 3.82 3.8v39.26c6.17-5.86 13-7.13 19.49-7.13 21.82 0 30.31 19.31 30.31 37.36 0 21.05-10.65 37.98-34.64 37.98zm-240.52.16c-24.15 0-34.81-16.62-34.81-37.83 0-21.05 10.66-37.67 34.81-37.67 23.98 0 34.64 16.62 34.64 37.67 0 21.21-10.66 37.83-34.64 37.83zm-60.83-.16c-23.48 0-33.63-17.25-33.63-38.3 0-19.79 10.99-37.04 32.97-37.04 6.33 0 21.82 1.74 21.82 6.81 0 2.06-1.84 3.64-4 3.64-8.83-2.69-11.16-3.17-13.83-3.17-15.81 0-17.31 19.31-17.31 29.92 0 19.78 4.49 30.71 16.98 30.71 4.17 0 12.33-2.07 16.82-3.49 2.67.16 4 1.74 4 3.49 0 .79-.33 1.58-.83 2.37-5.5 2.85-15.66 5.06-22.99 5.06zm-761.08 0c-23.47 0-33.63-17.25-33.63-38.3 0-19.79 10.99-37.04 32.97-37.04 6.33 0 21.82 1.74 21.82 6.81 0 2.06-1.84 3.64-4 3.64-8.83-2.69-11.16-3.17-13.83-3.17-15.81 0-17.31 19.31-17.31 29.92 0 19.78 4.49 30.71 16.98 30.71 4.17 0 12.33-2.07 16.82-3.49 2.67.16 4 1.74 4 3.49 0 .79-.33 1.58-.83 2.37-5.5 2.85-15.66 5.06-22.99 5.06z" fill="#dac2a6"/>
</svg>
