<svg xmlns="http://www.w3.org/2000/svg" width="17.279" height="17.279" viewBox="0 0 457.18 457.18" shape-rendering="geometricPrecision" text-rendering="geometricPrecision" image-rendering="optimizeQuality" fill-rule="evenodd" clip-rule="evenodd">
  <path d="M368.73 280.11c-3.98-.64-7.72 2.08-8.35 6.06l-21.14 133.4c-.63 3.98 2.08 7.72 6.06 8.35a7.305 7.305 0 0 0 8.35-6.07l21.14-133.4c.64-3.97-2.08-7.71-6.06-8.34zm88.46-51.52c0-18.03-12.91-33.1-29.96-36.45-.61-18.66-3.82-36.67-9.25-53.7-.11-.57-.3-1.13-.54-1.65C391.35 57.44 316.56-.01 228.59-.01S65.83 57.44 39.74 136.79c-.24.53-.43 1.08-.54 1.65a198.201 198.201 0 0 0-9.25 53.7C12.9 195.5-.01 210.56-.01 228.59c0 18.43 13.5 33.77 31.13 36.66L70.44 451.4a7.29 7.29 0 0 0 7.14 5.79H379.6c3.45 0 6.42-2.41 7.14-5.79l39.32-186.15c17.63-2.89 31.13-18.23 31.13-36.66zM228.59 14.58c78.58 0 145.8 49.48 172.2 118.91-11.55 2.24-18.64 8.18-25.04 13.56-7.35 6.19-13.15 11.07-25.68 11.07-12.52 0-18.33-4.88-25.68-11.07-8.07-6.79-17.22-14.49-35.07-14.49s-26.99 7.7-35.07 14.49c-7.34 6.19-13.15 11.07-25.67 11.07-12.52 0-18.33-4.88-25.67-11.07-8.08-6.79-17.23-14.49-35.07-14.49-17.85 0-27 7.7-35.07 14.49-7.35 6.19-13.15 11.07-25.67 11.07-12.53 0-18.33-4.88-25.68-11.07-6.39-5.38-13.49-11.33-25.03-13.56 26.39-69.43 93.62-118.91 172.2-118.91zM373.68 442.6H83.5L46.14 265.74h364.9L373.68 442.6zm46.36-191.45H37.14c-12.44 0-22.56-10.12-22.56-22.56s10.12-22.56 22.56-22.56c4.03 0 7.3-3.26 7.3-7.29 0-17.78 2.54-34.97 7.26-51.24 9 1.2 14.12 5.49 20.33 10.72 8.07 6.79 17.22 14.49 35.07 14.49s26.99-7.7 35.07-14.49c7.34-6.19 13.14-11.07 25.67-11.07 12.52 0 18.33 4.88 25.67 11.07 8.07 6.79 17.22 14.49 35.07 14.49s27-7.7 35.07-14.49c7.35-6.19 13.15-11.07 25.67-11.07 12.53 0 18.33 4.88 25.68 11.07 8.07 6.79 17.22 14.49 35.07 14.49s27-7.7 35.08-14.49c6.21-5.23 11.33-9.52 20.33-10.72 4.73 16.27 7.26 33.46 7.26 51.24 0 4.03 3.27 7.29 7.3 7.29 12.44 0 22.56 10.12 22.56 22.56s-10.12 22.56-22.56 22.56zM96.8 286.35c-.63-3.98-4.37-6.7-8.35-6.06-3.98.62-6.7 4.36-6.07 8.34l21.1 133.22a7.296 7.296 0 0 0 8.35 6.07c3.98-.63 6.69-4.37 6.06-8.35L96.8 286.35zm46.38.34c-.42-4-4.01-6.89-8.02-6.49-4.01.43-6.91 4.02-6.49 8.02l14.05 133.26c.4 3.74 3.56 6.53 7.25 6.53.26 0 .51-.02.77-.04 4.01-.43 6.92-4.02 6.49-8.02l-14.05-133.26zm46.36.36c-.21-4.03-3.61-7.15-7.67-6.91-4.02.22-7.11 3.65-6.9 7.67l7.02 133.29c.2 3.89 3.42 6.91 7.27 6.91.13 0 .26-.01.39-.01 4.03-.22 7.12-3.65 6.91-7.67l-7.02-133.28zm39.05-6.94a7.3 7.3 0 0 0-7.3 7.29l-.02 133.31c0 4.03 3.26 7.3 7.29 7.3s7.3-3.27 7.3-7.3l.03-133.31c0-4.03-3.27-7.29-7.3-7.29zm46.72-.02c-4-.23-7.46 2.87-7.67 6.9l-7.07 133.34c-.21 4.02 2.88 7.45 6.9 7.67.13 0 .26.01.39.01 3.86 0 7.08-3.02 7.28-6.91l7.07-133.34a7.294 7.294 0 0 0-6.9-7.67zm38.13 81.19a7.286 7.286 0 0 0-8.02 6.49l-5.52 52.17c-.43 4.01 2.48 7.6 6.49 8.03.26.02.51.04.77.04 3.69 0 6.85-2.79 7.25-6.53l5.51-52.18c.43-4-2.48-7.59-6.48-8.02zm8.58-81.19a7.297 7.297 0 0 0-8.02 6.48l-5.52 52.18c-.42 4.01 2.49 7.6 6.49 8.02.26.03.52.04.78.04 3.68 0 6.85-2.78 7.24-6.53l5.52-52.17c.42-4.01-2.48-7.6-6.49-8.02z" fill="#af804d"/>
</svg>
