<svg xmlns="http://www.w3.org/2000/svg" width="15.87" height="16">
  <path d="M9.25 6.161v-.919a2.444 2.444 0 0 1 .02-.321.628.628 0 0 1 .07-.223.3.3 0 0 1 .17-.152 1.074 1.074 0 0 1 .33-.043h.73V2.665H9.4a1.68 1.68 0 0 0-1.46.605 2.969 2.969 0 0 0-.45 1.784v1.107h-.88V8h.88v5.334h1.76V8h1.18l.15-1.838H9.25zm2.24-6.162H4.38A4.406 4.406 0 0 0 0 4.415v7.169a4.406 4.406 0 0 0 4.38 4.415h7.11a4.4 4.4 0 0 0 4.38-4.415V4.415A4.4 4.4 0 0 0 11.49 0zm2.97 11.585a2.985 2.985 0 0 1-2.97 3H4.38a2.985 2.985 0 0 1-2.97-3V4.415a2.985 2.985 0 0 1 2.97-3h7.11a2.985 2.985 0 0 1 2.97 3v7.169z" fill="#dac2a6" fill-rule="evenodd"/>
</svg>
