<svg xmlns="http://www.w3.org/2000/svg" width="15.87" height="16">
  <path d="M11.49 0H4.38A4.406 4.406 0 0 0 0 4.416v7.169A4.406 4.406 0 0 0 4.38 16h7.11a4.4 4.4 0 0 0 4.38-4.415V4.416A4.4 4.4 0 0 0 11.49 0zm2.97 11.585a2.985 2.985 0 0 1-2.97 3H4.38a2.985 2.985 0 0 1-2.97-3V4.416a2.985 2.985 0 0 1 2.97-3h7.11a2.985 2.985 0 0 1 2.97 3v7.169zM7.94 3.878a4.123 4.123 0 1 0 4.08 4.123 4.108 4.108 0 0 0-4.08-4.124zm0 6.826a2.7 2.7 0 1 1 2.68-2.7A2.7 2.7 0 0 1 7.94 10.7zm4.26-8.03a1.05 1.05 0 0 0-1.04 1.041 1.048 1.048 0 0 0 1.04 1.041 1.041 1.041 0 0 0 0-2.083z" fill="#dac2a6" fill-rule="evenodd"/>
</svg>
