<?xml version="1.0" encoding="UTF-8"?>
<!DOCTYPE svg PUBLIC "-//W3C//DTD SVG 1.1//EN" "http://www.w3.org/Graphics/SVG/1.1/DTD/svg11.dtd">
<!-- Creator: CorelDRAW 2018 (64-Bit Evaluation Version) -->
<svg xmlns="http://www.w3.org/2000/svg" xml:space="preserve" width="64px" height="55px" version="1.1" style="shape-rendering:geometricPrecision; text-rendering:geometricPrecision; image-rendering:optimizeQuality; fill-rule:evenodd; clip-rule:evenodd"
viewBox="0 0 64 55"
 xmlns:xlink="http://www.w3.org/1999/xlink">
 <defs>
  <style type="text/css">
   <![CDATA[
    .fil0 {fill:#AF804D}
    .fil1 {fill:#AF804D;fill-rule:nonzero}
   ]]>
  </style>
 </defs>
 <g id="Layer_x0020_1">
  <metadata id="CorelCorpID_0Corel-Layer"/>
  <g id="_1297704767840">
   <path class="fil0" d="M34.08 14.4c-0.27,-0.52 -0.92,-0.72 -1.44,-0.44 -0.52,0.27 -0.72,0.92 -0.45,1.44 4.61,8.7 7.05,15.2 7.05,18.8 0,10.29 -8.38,18.66 -18.67,18.66 -10.29,0 -18.67,-8.37 -18.67,-18.66 0,-4.87 4.48,-15.03 12.61,-28.63 1.29,-2.15 3.55,-3.43 6.06,-3.43 2.51,0 4.77,1.28 6.06,3.43 1.2,2 2.34,3.97 3.39,5.85 0.29,0.51 0.94,0.69 1.45,0.41 0.52,-0.29 0.7,-0.94 0.41,-1.46 -1.06,-1.89 -2.21,-3.88 -3.41,-5.89 -1.68,-2.81 -4.63,-4.48 -7.9,-4.48 -3.27,0 -6.22,1.67 -7.89,4.48 -0.75,1.24 -1.51,2.55 -2.28,3.88 -1.04,1.81 -2.06,3.64 -3.04,5.49 -4.12,7.7 -7.59,15.62 -7.59,20.35 0,6.93 3.41,13.09 8.65,16.87 1.03,0.75 2.43,1.56 3.57,2.08 2.62,1.19 5.52,1.85 8.58,1.85 11.47,0 20.8,-9.33 20.8,-20.8 0,-4 -2.45,-10.66 -7.29,-19.8z"/>
   <path class="fil0" d="M26.39 33.37c0.59,0 1.07,-0.47 1.07,-1.06 0,-0.59 -0.48,-1.07 -1.07,-1.07l-0.69 0c-0.59,0 -1.06,0.48 -1.06,1.07 0,0.59 0.47,1.06 1.06,1.06l0.69 0z"/>
   <path class="fil0" d="M50.98 32.38c0.59,0 1.06,-0.48 1.06,-1.07 0,-0.59 -0.47,-1.06 -1.06,-1.06l-0.69 0c-0.59,0 -1.07,0.47 -1.07,1.06 0,0.59 0.48,1.07 1.07,1.07l0.69 0z"/>
   <path class="fil0" d="M31.71 33.05l-0.63 0c-0.59,0 -1.06,0.48 -1.06,1.07 0,0.59 0.47,1.07 1.06,1.07l0.63 0c0.59,0 1.07,-0.48 1.07,-1.07 0,-0.59 -0.48,-1.07 -1.07,-1.07l0 0z"/>
   <path class="fil0" d="M56.29 32.06l-0.62 0c-0.59,0 -1.07,0.48 -1.07,1.07 0,0.59 0.48,1.06 1.07,1.06l0.62 0c0.59,0 1.07,-0.47 1.07,-1.06 0,-0.59 -0.48,-1.07 -1.07,-1.07l0 0z"/>
   <path class="fil0" d="M23.2 39.56c0,0.59 0.48,1.07 1.06,1.07l1.01 0c0.59,0 1.06,-0.48 1.06,-1.07 0,-0.59 -0.47,-1.07 -1.06,-1.07l-1.01 0c-0.58,0 -1.06,0.48 -1.06,1.07l0 0z"/>
   <path class="fil0" d="M47.78 38.57c0,0.59 0.48,1.07 1.07,1.07l1 0c0.59,0 1.07,-0.48 1.07,-1.07 0,-0.59 -0.48,-1.07 -1.07,-1.07l-1 0c-0.59,0 -1.07,0.48 -1.07,1.07l0 0z"/>
   <path class="fil0" d="M30.64 38.87c0,0.59 0.48,1.07 1.07,1.07l1.81 0c0.59,0 1.07,-0.48 1.07,-1.07 0,-0.59 -0.48,-1.07 -1.07,-1.07l-1.81 0c-0.59,0 -1.07,0.48 -1.07,1.07l0 0z"/>
   <path class="fil0" d="M55.23 37.88c0,0.59 0.47,1.07 1.06,1.07l1.82 0c0.59,0 1.07,-0.48 1.07,-1.07 0,-0.59 -0.48,-1.07 -1.07,-1.07l-1.82 0c-0.59,0 -1.06,0.48 -1.06,1.07l0 0z"/>
   <path class="fil0" d="M28.93 43.43c-0.6,0 -1.07,0.48 -1.07,1.07 0,0.59 0.47,1.07 1.07,1.07l0.84 0c0.59,0 1.07,-0.48 1.07,-1.07 0,-0.59 -0.48,-1.07 -1.07,-1.07l-0.84 0z"/>
   <path class="fil0" d="M53.51 42.44c-0.59,0 -1.07,0.48 -1.07,1.07 0,0.59 0.48,1.07 1.07,1.07l0.84 0c0.59,0 1.07,-0.48 1.07,-1.07 0,-0.59 -0.48,-1.07 -1.07,-1.07l-0.84 0z"/>
   <path class="fil1" d="M56.91 22.01c-0.41,-0.42 -0.41,-1.09 0,-1.51 0.42,-0.41 1.09,-0.42 1.51,0 1.83,1.82 3.3,4 4.31,6.43 0.97,2.33 1.5,4.9 1.5,7.58 0,5.44 -2.2,10.37 -5.75,13.95 -3.55,3.57 -8.46,5.78 -13.89,5.78 -4.44,0 -8.54,-1.49 -11.84,-3.99 0.57,-0.45 1.11,-0.93 1.63,-1.45 2.87,2.08 6.4,3.3 10.21,3.3 4.84,0 9.21,-1.97 12.38,-5.15 3.17,-3.18 5.13,-7.58 5.13,-12.44 0,-2.4 -0.48,-4.69 -1.34,-6.77 -0.9,-2.16 -2.22,-4.11 -3.85,-5.73zm-22.29 -4.5c2.93,-1.73 6.34,-2.73 9.97,-2.73 1.74,0 3.46,0.23 5.12,0.68 1.66,0.45 3.26,1.12 4.76,2 0.51,0.3 0.68,0.95 0.38,1.46 -0.29,0.5 -0.95,0.67 -1.45,0.38 -1.33,-0.78 -2.75,-1.38 -4.24,-1.78 -1.47,-0.4 -3.01,-0.6 -4.57,-0.6 -3.11,0 -6.03,0.81 -8.56,2.24 -0.44,-0.58 -0.91,-1.13 -1.41,-1.65z"/>
  </g>
 </g>
</svg>
