<svg xmlns="http://www.w3.org/2000/svg" width="17.279" height="15.999" viewBox="0 0 457.18 423.32" shape-rendering="geometricPrecision" text-rendering="geometricPrecision" image-rendering="optimizeQuality" fill-rule="evenodd" clip-rule="evenodd">
  <path d="M449.79 371.88h-18.01V187.59c0-15.61-12.69-28.3-28.29-28.3H267.64c11.19-10.46 18.21-25.33 18.21-41.83 0-24.68-20.08-44.75-44.75-44.75-1.37 0-2.73.08-4.08.2 4.7-32.46 32.7-57.48 66.45-57.48a7.71 7.71 0 0 0 7.71-7.72c0-4.26-3.45-7.72-7.71-7.72-42.32 0-77.28 32-82.03 73.06-1.78-.21-3.56-.34-5.36-.34-24.67 0-44.75 20.07-44.75 44.75 0 16.5 7.02 31.37 18.21 41.83H48.55c-12.77 0-23.15 10.39-23.15 23.15 0 9.77 6.09 18.15 14.67 21.53-.57 1.95-1.42 3.51-2.42 5.36-2.25 4.14-5.05 9.29-5.05 18.82 0 9.54 2.8 14.69 5.05 18.83 1.85 3.4 3.18 5.86 3.18 11.46 0 5.61-1.33 8.06-3.18 11.46-2.25 4.14-5.05 9.3-5.05 18.83 0 9.53 2.8 14.69 5.05 18.83 1.85 3.4 3.18 5.85 3.18 11.46 0 5.61-1.33 8.07-3.18 11.45-2.25 4.15-5.05 9.3-5.05 18.84 0 9.53 2.8 14.68 5.05 18.83.71 1.31 1.35 2.48 1.86 3.74H7.39a7.71 7.71 0 0 0-7.71 7.72c0 4.26 3.45 7.72 7.71 7.72h4.47l4.44 15.57c3.28 11.46 15.18 20.44 27.1 20.44h370.38c11.92 0 23.82-8.99 27.1-20.44l4.44-15.57h4.47c4.26 0 7.71-3.46 7.71-7.72a7.71 7.71 0 0 0-7.71-7.72zm-87.45-121.16h-224.8c-4.26 0-7.72 3.46-7.72 7.72 0 4.27 3.46 7.72 7.72 7.72h224.8c4.26 0 7.71-3.45 7.71-7.71 0-4.27-3.45-7.73-7.71-7.73zM186.76 117.46c0-16.17 13.15-29.33 29.32-29.33 3.4 0 6.73.59 9.9 1.73.03 0 .05 0 .08.01.37.13.75.24 1.14.31.07.01.12.02.19.03.39.05.78.1 1.18.1.44-.01.83-.05 1.22-.1.06-.01.12-.02.19-.03.39-.07.77-.18 1.14-.31.03-.01.05-.01.07-.01 3.18-1.14 6.51-1.73 9.91-1.73 16.17 0 29.31 13.16 29.31 29.33 0 23.06-18.76 41.83-41.82 41.83s-41.83-18.77-41.83-41.83zM48.55 174.73h354.94c7.09 0 12.86 5.76 12.86 12.86v184.29h-15.43V197.87c0-4.27-3.45-7.72-7.72-7.72H48.55c-4.26 0-7.72-3.45-7.72-7.71s3.46-7.71 7.72-7.71zm2.66 186.04c-1.85-3.4-3.18-5.85-3.18-11.46 0-5.61 1.33-8.07 3.18-11.47 1.55-2.85 3.36-6.19 4.33-11.11h306.8a7.71 7.71 0 0 0 7.71-7.72c0-4.26-3.45-7.71-7.71-7.71H55.55c-.98-4.92-2.79-8.26-4.34-11.11-1.85-3.4-3.18-5.85-3.18-11.47 0-5.6 1.33-8.05 3.18-11.45 1.55-2.86 3.36-6.19 4.34-11.11h51.12c4.26 0 7.72-3.45 7.72-7.72 0-4.26-3.46-7.72-7.72-7.72H55.55c-.98-4.91-2.79-8.25-4.34-11.11-1.85-3.39-3.18-5.85-3.18-11.46 0-5.61 1.33-8.05 3.18-11.45 1.55-2.86 3.36-6.2 4.34-11.11h329.94v166.29H55.55c-.98-4.92-2.79-8.26-4.34-11.11zm374.82 37.88c-1.38 4.83-7.22 9.24-12.25 9.24H43.4c-5.03 0-10.87-4.41-12.25-9.24l-3.24-11.33h401.36l-3.24 11.33z" fill="#af804d"/>
</svg>
