<svg xmlns="http://www.w3.org/2000/svg" width="37.76" height="5.759" viewBox="0 0 999.06 152.38" shape-rendering="geometricPrecision" text-rendering="geometricPrecision" image-rendering="optimizeQuality" fill-rule="evenodd" clip-rule="evenodd">
  <defs>
    <style>
      .fil0,.fil1{fill:#dac2a6}.fil1{fill-opacity:.501961}
    </style>
  </defs>
  <g id="Camada_x0020_1">
    <g id="_2399385622624">
      <path class="fil0" d="M716.91 14.83c0 5.21 4.41 9.62 9.62 9.62 5.22 0 9.63-4.41 9.63-9.62 0-5.21-4.41-9.63-9.63-9.63-5.21 0-9.62 4.42-9.62 9.63z"/>
      <path class="fil0" d="M253.69 14.43l-14.84 4.81v19.25h-16.44v12.83h16.04v41.71c0 19.66 6.82 27.68 23.26 27.68 4.01 0 8.02-.4 12.03-1.61h.81v-13.23l-1.21.4c-3.21 1.2-5.61 1.6-7.62 1.6-7.62 0-10.83-4.41-10.83-16.04v-40.1h18.85V38.49h-18.85V14.03l-1.2.4z"/>
      <path class="fil0" d="M304.62 51.73V38.49h-14.83v81.01h16.44V79c0-16.85 7.22-26.47 20.05-26.47 2.01 0 3.61.4 6.02.8l1.2.4.4-16.04-7.22-.4c-9.62 0-17.24 5.21-22.06 14.44z"/>
      <path class="fil0" d="M421.73 36.89c-11.23 0-20.85 5.21-26.87 15.24V38.49h-14.84v113.9h16.45v-44.12c6.01 8.03 14.43 12.44 24.86 12.44 20.86 0 34.09-16.85 34.09-43.32 0-24.06-13.64-40.5-33.69-40.5zm-4.41 70.58c-12.83 0-21.26-11.23-21.26-28.87 0-17.25 8.43-28.48 21.66-28.48 12.84 0 20.46 10.43 20.46 28.08 0 18.04-8.03 29.27-20.86 29.27z"/>
      <path class="fil0" d="M503.15 36.89c-10.03 0-18.85 2-26.87 5.61l-.41.4v14.04l1.21-.8c7.62-4.41 14.84-6.42 21.65-6.42 12.04 0 18.85 6.82 18.85 18.85v.8h-9.22c-26.87 0-41.71 9.63-41.71 27.67 0 14.44 10.83 24.07 26.07 24.07 11.23 0 20.05-4.41 26.07-12.84v11.63h14.84V70.58c0-22.46-10.03-33.69-30.48-33.69zm14.43 48.52c0 14.04-8.42 22.86-21.25 22.86-8.02 0-13.64-5.21-13.64-12.83 0-9.62 9.23-15.24 26.47-15.24h8.42v5.21z"/>
      <path class="fil0" d="M603.41-.01v49.73c-6.02-8.42-14.44-12.83-25.27-12.83-20.05 0-33.69 16.44-33.69 40.9 0 25.27 13.64 42.92 33.29 42.92 11.63 0 20.46-5.22 26.87-15.24v14.03h15.24V-.01h-16.44zm-21.26 107.08c-12.43 0-20.45-10.83-20.45-28.47 0-17.65 8.02-28.88 20.05-28.88 13.64 0 21.66 10.83 21.66 28.88 0 17.64-8.42 28.47-21.26 28.47z"/>
      <path class="fil0" d="M693.24 38.49l-23.26 46.92-21.65-46.92h-18.45l39.7 81.01 40.51-81.01z"/>
      <path class="fil0" d="M734.15 38.49h-15.64v81.01h16.44V38.49z"/>
      <path class="fil0" d="M754.2 59.35c0 11.23 8.03 17.24 22.06 24.46 9.23 4.41 14.04 7.22 14.04 13.23 0 6.42-6.02 10.83-14.84 10.83-6.42 0-13.64-2-20.45-5.21l-1.21-.4-.4 14.44.4.4c6.82 2.8 14.04 4.01 21.26 4.01 20.05 0 32.89-9.63 32.89-24.47 0-12.43-8.02-18.44-22.46-25.26-10.43-4.82-14.84-7.62-14.84-12.84 0-4.81 4.81-8.02 12.43-8.02 6.82 0 13.24 1.61 19.65 4.41l1.21.41.8-14.04h-.8c-6.82-2.01-13.64-3.21-20.06-3.21-17.64-.4-29.68 8.42-29.68 21.26z"/>
      <path class="fil0" d="M859.28 36.89c-24.46 0-40.1 16.04-40.1 42.51 0 26.07 15.24 42.51 40.1 42.51 24.87 0 40.11-16.04 40.11-42.51s-15.64-42.51-40.11-42.51zm0 70.98c-13.63 0-22.86-11.63-22.86-29.27 0-17.65 9.23-29.28 22.86-29.28 14.04 0 22.86 11.63 22.86 29.28 0 18.04-9.22 29.27-22.86 29.27z"/>
      <path class="fil0" d="M929.47 51.73V38.49h-14.84v81.01h16.44V79c0-16.85 7.22-26.47 20.05-26.47 2.01 0 3.61.4 6.02.8l1.2.4.4-16.04-7.22-.4c-9.62 0-17.24 5.21-22.05 14.44z"/>
      <path class="fil0" d="M363.18 38.49h-15.64v81.01h16.44V38.49z"/>
      <path class="fil0" d="M345.93 14.83c0 5.21 4.41 9.62 9.63 9.62 5.21 0 9.62-4.41 9.62-9.62 0-5.21-4.41-9.63-9.62-9.63-5.22 0-9.63 4.42-9.63 9.63z"/>
      <path class="fil0" d="M48.35 62.15c-4.81 0-8.42 3.61-8.42 8.43 0 4.81 3.61 8.42 8.42 8.42 4.81 0 8.42-3.61 8.42-8.42 0-4.82-4.01-8.43-8.42-8.43z"/>
      <path class="fil0" d="M149.82 62.15c-4.81 0-8.42 3.61-8.42 8.43 0 4.81 3.61 8.42 8.42 8.42 4.81 0 8.42-3.61 8.42-8.42 0-4.82-3.61-8.43-8.42-8.43z"/>
      <path class="fil0" d="M190.73 40.9c2.4-10.03 10.02-20.46 10.02-20.46h-33.69C148.21 8.01 124.95 1.59 99.69 1.59c-26.47 0-50.54 6.82-69.39 18.85l-32.08.4S5.84 30.87 8.25 40.9C1.83 49.32-1.78 59.75-1.78 70.98c0 28.07 22.86 50.53 50.53 50.53 16.04 0 30.08-7.62 39.71-18.85l10.83 16.04 10.82-16.44c4.82 6.42 11.23 11.23 18.45 14.84 12.43 5.61 26.07 6.41 38.9 1.6 26.07-9.62 39.71-38.9 30.08-64.97-1.6-4.81-4.01-9.22-6.81-12.83zm-57.76 66.97c-9.62-4.41-17.24-12.43-20.85-22.86-3.61-10.02-3.21-21.25 1.2-30.88 4.41-9.62 12.43-17.24 22.86-20.85 20.86-7.62 44.12 3.21 52.14 24.06 7.62 20.86-3.21 44.12-24.06 52.14-10.43 3.21-21.26 2.8-31.29-1.61zm-84.22 3.61c-22.46 0-40.5-18.04-40.5-40.5a40.39 40.39 0 0 1 40.5-40.51 40.4 40.4 0 0 1 40.51 40.51c0 22.05-18.05 40.5-40.51 40.5zm83.82-87.83c-12.83 4.81-22.86 14.04-28.47 26.47-2.41 5.62-4.01 11.23-4.41 17.25-2.01-26.07-23.26-46.53-49.33-46.93 14.43-6.01 31.28-9.62 49.33-9.62 18.04 0 34.49 3.21 48.92 9.62-5.61 0-10.82 1.21-16.04 3.21z"/>
      <path class="fil0" d="M48.35 45.31c-13.63 0-24.86 11.23-24.86 24.86 0 13.64 11.23 24.87 24.86 24.87 13.64 0 24.87-11.23 24.87-24.87 0-13.63-11.23-24.86-24.87-24.86zm0 41.71c-9.22 0-16.44-7.22-16.44-16.44 0-9.23 7.22-16.45 16.44-16.45 9.23 0 16.44 7.22 16.44 16.45 0 8.82-7.62 16.44-16.44 16.44z"/>
      <path class="fil0" d="M149.82 45.31c-13.64 0-24.87 11.23-24.87 24.86 0 13.64 11.23 24.87 24.87 24.87 13.63 0 24.86-11.23 24.86-24.87 0-13.63-10.83-24.86-24.86-24.86zm0 41.71c-9.23 0-16.45-7.22-16.45-16.44 0-9.23 7.22-16.45 16.45-16.45 9.22 0 16.44 7.22 16.44 16.45 0 8.82-7.22 16.44-16.44 16.44z"/>
      <path class="fil1" d="M996.44 48.92c-5.28 5.29-13.96 5.28-19.25 0-5.86-5.03-5.86-15.03 0-20.05 5.29-5.29 13.97-5.29 19.25 0 5.87 5.02 5.87 15.02 0 20.05zm-17.65-1.61c5.06 4.22 10.99 4.21 16.05 0 4.81-4.01 4.81-12.83 0-16.84-5.06-4.21-10.99-4.21-16.05 0-4.81 4.01-4.81 12.83 0 16.84z"/>
      <path class="fil1" d="M986.41 31.07c4.42 0 6.82 1.61 6.82 4.41 0 2.01-1.2 3.61-3.21 4.41l3.61 6.82h-5.21l-2.81-6.41h-1.2v6.41H980V31.07h6.41zm-2 6.82h1.6c2.01 0 2.81-.8 2.81-2.01 0-1.6-.8-2-3.21-2h-1.2v4.01z"/>
    </g>
  </g>
</svg>
