<svg xmlns="http://www.w3.org/2000/svg" width="79.531" height="71.25">
  <path data-name="Forma 1" d="M49.938 2.29a7.744 7.744 0 0 0-10.169-.74 7.747 7.747 0 0 0-10.171.74 7.873 7.873 0 0 0 0 11.08l9.32 9.37a1.188 1.188 0 0 0 1.7 0l9.316-9.37a7.874 7.874 0 0 0 .004-11.08zm-1.7 9.37l-8.464 8.51-8.468-8.51a5.446 5.446 0 0 1 0-7.66 5.379 5.379 0 0 1 7.616 0 1.194 1.194 0 0 0 .852.36 1.2 1.2 0 0 0 .853-.36 5.373 5.373 0 0 1 7.611 0 5.448 5.448 0 0 1-.004 7.66zm7.6 11.92a23.419 23.419 0 0 0-16.077 6.33 23.506 23.506 0 0 0-16.058-6.33 23.83 23.83 0 0 0 0 47.66 23.409 23.409 0 0 0 16.077-6.32 23.5 23.5 0 0 0 16.059 6.32 23.83 23.83 0 0 0-.004-47.66zM23.7 68.82a21.355 21.355 0 1 1 18.482-10.77 17.86 17.86 0 0 1-1.028-1.48 19.931 19.931 0 0 0 .681-16.86 19.6 19.6 0 0 0-3.752-5.8l-.02-.03c-.146-.15-.294-.31-.445-.46a19.607 19.607 0 0 0-13.918-5.8 19.406 19.406 0 0 0-4.808.6 19.2 19.2 0 0 0-4.376 1.69 19.673 19.673 0 0 0-6.882 6.07 1.19 1.19 0 0 0-.2.9 1.218 1.218 0 0 0 .491.79 1.232 1.232 0 0 0 .7.22 1.207 1.207 0 0 0 .985-.51 17.5 17.5 0 0 1 6.04-5.33 16.67 16.67 0 0 1 3.84-1.48 17.144 17.144 0 0 1 16.187 4.33 23.915 23.915 0 0 0 .008 25.03 17.138 17.138 0 0 1-1.954 1.63 17.689 17.689 0 0 1-3.022 1.74 17.136 17.136 0 0 1-7 1.48 17.164 17.164 0 0 1-10.608-3.66 17.453 17.453 0 0 1-5.59-19.75 1.219 1.219 0 0 0-.712-1.56 1.22 1.22 0 0 0-1.549.72 19.812 19.812 0 0 0 6.371 22.5 19.538 19.538 0 0 0 12.088 4.18v-.01.01a19.567 19.567 0 0 0 11.419-3.68 18.862 18.862 0 0 0 1.942-1.59c.328.43.67.85 1.026 1.25A21.044 21.044 0 0 1 23.7 68.82zm17.273-21.4a17.189 17.189 0 0 1-1.207 6.38 17.408 17.408 0 0 1 0-12.77 17.372 17.372 0 0 1 1.207 6.39zm14.862 21.4a21.436 21.436 0 0 1-18.482-32.04c.368.48.711.97 1.027 1.48a19.835 19.835 0 0 0 3.08 22.67c0 .01.006.01.009.01.148.16.3.32.449.47a19.593 19.593 0 0 0 18.727 5.2 19.233 19.233 0 0 0 4.375-1.69 19.673 19.673 0 0 0 6.882-6.07 1.221 1.221 0 0 0-.286-1.69 1.242 1.242 0 0 0-.7-.22 1.2 1.2 0 0 0-.983.51 17.475 17.475 0 0 1-6.041 5.33 17.266 17.266 0 0 1-14.783.64 17.294 17.294 0 0 1-5.243-3.49 23.915 23.915 0 0 0-.008-25.03 17.12 17.12 0 0 1 11.976-4.85 16.961 16.961 0 0 1 6.112 1.12h.022v.01a17.053 17.053 0 0 1 4.486 2.54 17.457 17.457 0 0 1 5.574 19.74 1.2 1.2 0 0 0 .036.92 1.2 1.2 0 0 0 2.225-.08 19.921 19.921 0 0 0-2.347-18.26 19.642 19.642 0 0 0-16.112-8.42 19.348 19.348 0 0 0-7.975 1.7 20.086 20.086 0 0 0-5.388 3.56c-.328-.42-.67-.84-1.025-1.24a21.042 21.042 0 0 1 14.389-5.63 21.405 21.405 0 0 1 .004 42.81z" fill="#ef5619" fill-rule="evenodd"/>
</svg>
