<svg xmlns="http://www.w3.org/2000/svg" width="79.532" height="73.25">
  <path data-name="Forma 1" d="M68.696 45.08h-3.342a29.324 29.324 0 1 0-49.553 0h-3.342a1.2 1.2 0 0 0-1.123.77 1.215 1.215 0 0 0 .31 1.33l28.119 25.76a1.193 1.193 0 0 0 1.626 0l28.118-25.76a1.216 1.216 0 0 0 .311-1.33 1.2 1.2 0 0 0-1.124-.77zM13.669 29.37a26.914 26.914 0 1 1 26.914 26.98 26.974 26.974 0 0 1-26.914-26.98zm26.914 41.04L15.568 47.49h1.941a29.256 29.256 0 0 0 46.148 0h1.941zm18.135-48.72A19.7 19.7 0 0 0 40.583 9.64a19.91 19.91 0 0 0-4.493.52 19.491 19.491 0 0 0-4.127 1.47 19.759 19.759 0 0 0-9.13 26.27 1.21 1.21 0 0 0 1.086.69 1.177 1.177 0 0 0 .521-.12 1.209 1.209 0 0 0 .565-1.61 17.348 17.348 0 0 1 8.016-23.06 17.815 17.815 0 0 1 3.62-1.29 17.356 17.356 0 0 1 3.944-.45 17.315 17.315 0 0 1 0 34.63 17.442 17.442 0 0 1-3.82-.43 16.882 16.882 0 0 1-3.523-1.21 17.525 17.525 0 0 1-3.131-1.91 17.786 17.786 0 0 1-2.65-2.51 1.206 1.206 0 0 0-1.831 1.57 19.872 19.872 0 0 0 3.017 2.86 19.4 19.4 0 0 0 3.569 2.17 19.337 19.337 0 0 0 8.366 1.87 19.746 19.746 0 0 0 18.131-27.41zM9.251 9.64a1.213 1.213 0 0 0-1.205 1.21v5.24H6.439v-5.24a1.205 1.205 0 1 0-2.41 0v5.24H2.422v-5.24a1.205 1.205 0 1 0-2.41 0v8.86a5.231 5.231 0 0 0 4.017 5.09v23.09a1.205 1.205 0 1 0 2.41 0V24.8a5.232 5.232 0 0 0 4.017-5.09v-8.86a1.213 1.213 0 0 0-1.21-1.21zM8.046 19.71a2.812 2.812 0 1 1-5.624 0V18.5h5.624v1.21zM73.522 9.64a1.213 1.213 0 0 0-1.205 1.21v37.04a1.205 1.205 0 1 0 2.41 0V29.78h3.615a1.213 1.213 0 0 0 1.2-1.21V15.68a6.04 6.04 0 0 0-6.025-6.04zm3.615 17.72h-2.41V12.27a3.628 3.628 0 0 1 2.41 3.41v11.68zm-27.049-5.72a7.306 7.306 0 0 0-9.5-.73 7.308 7.308 0 0 0-9.506.73 7.361 7.361 0 0 0 0 10.38l8.654 8.68a1.212 1.212 0 0 0 1.7 0l8.651-8.68a7.362 7.362 0 0 0-.004-10.38zm-1.705 8.68l-7.8 7.81-7.8-7.81a4.944 4.944 0 0 1 0-6.97 4.913 4.913 0 0 1 6.95 0 1.185 1.185 0 0 0 .852.35 1.185 1.185 0 0 0 .852-.35 4.908 4.908 0 0 1 6.946 0 4.946 4.946 0 0 1-.005 6.97z" fill="#d48e16" fill-rule="evenodd"/>
</svg>
