<svg xmlns="http://www.w3.org/2000/svg" width="71.813" height="80">
  <path data-name="Forma 1" d="M35.486 4.31L19.674.04l-.146-.03h-.037a.475.475 0 0 0-.119-.01h-.027a1.15 1.15 0 0 0-.186.02h-.021a1.079 1.079 0 0 0-.349.12c-.008 0-.015.01-.023.01a1.021 1.021 0 0 0-.149.1c-.006 0-.013.01-.019.01a1.43 1.43 0 0 0-.252.27.03.03 0 0 1-.013.02.938.938 0 0 0-.087.16c0 .01-.009.02-.013.03a1.3 1.3 0 0 0-.063.17v.01l-1.271 4.77a1.245 1.245 0 0 0 .868 1.52 1.135 1.135 0 0 0 .317.04 1.231 1.231 0 0 0 1.185-.92l.955-3.58 13.44 3.63-3.565 13.4H15.693l2.306-8.67a1.241 1.241 0 0 0-.122-.94 1.213 1.213 0 0 0-.747-.57 1.147 1.147 0 0 0-.318-.05 1.233 1.233 0 0 0-1.185.92l-2.687 10.1a1.177 1.177 0 0 0-.066.25l-1.483 5.57a9.468 9.468 0 0 0 .941 7.19 9.361 9.361 0 0 0 4.551 4.02l-5.927 22.27-5.135 2.99-4.252-1.15a1.222 1.222 0 0 0-1.5.87 1.245 1.245 0 0 0 .868 1.52l18.976 5.12a1.161 1.161 0 0 0 .318.04 1.237 1.237 0 0 0 .317-2.43l-4.252-1.15-2.964-5.17 5.926-22.27a8.69 8.69 0 0 0 1.246.08 9.419 9.419 0 0 0 9.076-7.02v-.01l6.778-25.47a1.229 1.229 0 0 0-.872-1.51zM9.175 63.76l2.385-1.38 1.377 2.4zm18.028-33.1a6.979 6.979 0 0 1-3.241 4.25 6.934 6.934 0 0 1-9.5-2.56 7.011 7.011 0 0 1-.7-5.32l1.272-4.78H29.44zm44.59 42.66a1.222 1.222 0 0 0-1.5-.87L66.04 73.6l-5.134-2.99-5.928-22.27a9.513 9.513 0 0 0 5.492-11.21l-4.66-17.51a1.234 1.234 0 0 0-1.185-.92 1.149 1.149 0 0 0-.319.04 1.245 1.245 0 0 0-.868 1.52l1.2 4.49H40.224l-2.032-7.63 13.441-3.63.53 1.99a1.231 1.231 0 0 0 1.184.92 1.16 1.16 0 0 0 .319-.05 1.228 1.228 0 0 0 .867-1.51l-.846-3.18v-.01a1 1 0 0 0-.06-.17l-.013-.03a1.016 1.016 0 0 0-.088-.16.034.034 0 0 1-.012-.02 1.42 1.42 0 0 0-.256-.27s-.009-.01-.013-.01a1.023 1.023 0 0 0-.155-.1.013.013 0 0 1-.014-.01 1.141 1.141 0 0 0-.36-.12h-.012a1.238 1.238 0 0 0-.193-.02h-.017a.566.566 0 0 0-.129.01h-.036l-.12.03h-.04l-15.8 4.27a1.23 1.23 0 0 0-.869 1.51l6.78 25.48a9.435 9.435 0 0 0 9.094 7.02 8.474 8.474 0 0 0 1.227-.08l5.927 22.27-2.964 5.17-4.253 1.15a1.237 1.237 0 0 0 .317 2.43 1.168 1.168 0 0 0 .319-.04l14.225-3.84 4.749-1.28a1.246 1.246 0 0 0 .872-1.52zM44.653 41.4l-3.771-14.17h14.406l2.806 10.54a6.962 6.962 0 1 1-13.441 3.63zM58.92 75.52l1.377-2.4 2.385 1.38z" fill="#ffae23" fill-rule="evenodd"/>
</svg>
