<?xml version="1.0" encoding="UTF-8"?>
<!DOCTYPE svg PUBLIC "-//W3C//DTD SVG 1.1//EN" "http://www.w3.org/Graphics/SVG/1.1/DTD/svg11.dtd">
<!-- Creator: CorelDRAW 2017 -->
<svg xmlns="http://www.w3.org/2000/svg" xml:space="preserve" width="6.1806mm" height="6.7732mm" version="1.1" style="shape-rendering:geometricPrecision; text-rendering:geometricPrecision; image-rendering:optimizeQuality; fill-rule:evenodd; clip-rule:evenodd"
viewBox="0 0 618.06 677.32"
 xmlns:xlink="http://www.w3.org/1999/xlink">
 <defs>
  <style type="text/css">
   <![CDATA[
    .fil0 {fill:#906632}
   ]]>
  </style>
 </defs>
 <g id="Camada_x0020_1">
  <metadata id="CorelCorpID_0Corel-Layer"/>
  <g id="_2099418141152">
   <path class="fil0" d="M565.41 51.93l-43.86 0 0 -23.61c0,-16.74 -13.62,-30.36 -30.36,-30.36 -16.74,0 -30.36,13.62 -30.36,30.36l0 23.61 -60.72 0 0 -23.61c0,-16.74 -13.62,-30.36 -30.36,-30.36 -16.74,0 -30.36,13.62 -30.36,30.36l0 23.61 -60.72 0 0 -23.61c0,-16.74 -13.62,-30.36 -30.36,-30.36 -16.74,0 -30.36,13.62 -30.36,30.36l0 23.61 -60.72 0 0 -23.61c0,-16.74 -13.62,-30.36 -30.36,-30.36 -16.74,0 -30.36,13.62 -30.36,30.36l0 23.61 -43.86 0c-27.9,0 -50.6,22.69 -50.6,50.6l0 94.43c0,0.02 0.01,0.04 0.01,0.05l0 431.75 0 40.48c0,5.59 4.53,10.12 10.12,10.12l593.71 0c5.58,0 10.12,-4.53 10.12,-10.12l0 -94.45c0,-5.59 -4.53,-10.12 -10.12,-10.12 -5.59,0 -10.12,4.53 -10.12,10.12l0 84.33 -573.47 0 0 -20.24 475.62 0c0.34,0 0.68,-0.02 1.01,-0.05 0.26,-0.03 0.51,-0.07 0.76,-0.12 0.08,-0.01 0.15,-0.02 0.23,-0.03 0.29,-0.06 0.58,-0.14 0.86,-0.22 0.03,-0.01 0.07,-0.01 0.1,-0.02 0.29,-0.09 0.57,-0.2 0.85,-0.31 0.02,-0.01 0.05,-0.02 0.07,-0.03 0.27,-0.11 0.54,-0.24 0.8,-0.37 0.03,-0.02 0.07,-0.03 0.1,-0.05 0.24,-0.13 0.48,-0.28 0.71,-0.43 0.05,-0.03 0.09,-0.05 0.14,-0.08 0.23,-0.15 0.44,-0.32 0.65,-0.49 0.05,-0.03 0.1,-0.07 0.15,-0.11 0.25,-0.21 0.5,-0.43 0.73,-0.66 0,0 0.01,0 0.01,0l106.59 -106.81c2.61,-1.83 4.33,-4.86 4.33,-8.29 0,-0.04 -0.01,-0.08 -0.01,-0.11 0,-0.04 0.01,-0.08 0.01,-0.12l0 -323.62 0 -94.43c0,-27.9 -22.7,-50.6 -50.6,-50.6zm-74.22 -33.73c5.58,0 10.12,4.54 10.12,10.12l0 67.46c0,5.58 -4.54,10.12 -10.12,10.12 -5.58,0 -10.12,-4.54 -10.12,-10.12l0 -33.58c0,-0.05 0.01,-0.1 0.01,-0.15 0,-0.06 -0.01,-0.11 -0.01,-0.16l0 -33.57c0,-5.58 4.54,-10.12 10.12,-10.12zm-121.44 0c5.58,0 10.12,4.54 10.12,10.12l0 67.46c0,5.58 -4.54,10.12 -10.12,10.12 -5.58,0 -10.12,-4.54 -10.12,-10.12l0 -33.65c0,-0.03 0,-0.06 0,-0.08 0,-0.03 0,-0.06 0,-0.08l0 -33.65c0,-5.58 4.54,-10.12 10.12,-10.12zm-131.56 10.12c0,-5.58 4.54,-10.12 10.12,-10.12 5.58,0 10.12,4.54 10.12,10.12l0 67.46c0,5.58 -4.54,10.12 -10.12,10.12 -5.58,0 -10.12,-4.54 -10.12,-10.12l0 -67.46zm-111.32 -10.12c5.58,0 10.12,4.54 10.12,10.12l0 67.46c0,5.58 -4.54,10.12 -10.12,10.12 -5.58,0 -10.12,-4.54 -10.12,-10.12l0 -33.71c0,-0.01 0,-0.01 0,-0.02 0,-0.01 0,-0.02 0,-0.03l0 -33.7c0,-5.58 4.54,-10.12 10.12,-10.12zm-104.58 178.71l0 -94.38c0,-16.75 13.62,-30.36 30.36,-30.36l43.86 0 0 23.61c0,16.74 13.62,30.36 30.36,30.36 16.74,0 30.36,-13.62 30.36,-30.36l0 -23.61 60.72 0 0 23.61c0,16.74 13.62,30.36 30.36,30.36 16.74,0 30.36,-13.62 30.36,-30.36l0 -23.61 60.72 0 0 23.61c0,16.74 13.62,30.36 30.36,30.36 16.74,0 30.36,-13.62 30.36,-30.36l0 -23.61 60.72 0 0 23.61c0,16.74 13.62,30.36 30.36,30.36 16.74,0 30.36,-13.62 30.36,-30.36l0 -23.61 43.86 0c16.74,0 30.36,13.61 30.36,30.36l0 84.31 -543.11 0c-5.59,0 -10.12,4.53 -10.12,10.12 0,5.59 4.53,10.12 10.12,10.12l543.11 0 0 303.61 -97.85 0c-5.59,0 -10.12,4.53 -10.12,10.12l0 97.83 -465.5 0 0 -421.68c0,-0.02 -0.01,-0.03 -0.01,-0.05zm485.75 334.02l73.22 0 -73.22 73.36 0 -73.36z"/>
   <path class="fil0" d="M301.88 567.29c1.89,1.9 4.47,2.97 7.15,2.97 2.69,0 5.26,-1.07 7.16,-2.97l128.54 -128.54c19.08,-19.08 29.59,-44.45 29.59,-71.43 0,-26.99 -10.51,-52.35 -29.59,-71.43 -19.07,-19.08 -44.44,-29.59 -71.42,-29.59 -23.74,0 -46.22,8.13 -64.28,23.07 -18.05,-14.94 -40.54,-23.07 -64.27,-23.07 -26.98,0 -52.35,10.51 -71.43,29.59 -19.08,19.08 -29.59,44.44 -29.59,71.43 0,26.98 10.51,52.35 29.59,71.43l128.55 128.54zm-114.24 -257.09c15.26,-15.26 35.54,-23.66 57.12,-23.66 21.58,0 41.86,8.4 57.12,23.66 1.89,1.9 4.47,2.96 7.15,2.96 2.69,0 5.26,-1.06 7.16,-2.96 15.25,-15.26 35.54,-23.66 57.12,-23.66 21.57,0 41.86,8.4 57.11,23.66 15.26,15.26 23.66,35.54 23.66,57.12 0,21.57 -8.4,41.86 -23.66,57.11l-121.39 121.4 -121.39 -121.4c-15.26,-15.25 -23.66,-35.54 -23.66,-57.11 0,-21.58 8.4,-41.86 23.66,-57.12z"/>
   <g>
   </g>
   <g>
   </g>
   <g>
   </g>
   <g>
   </g>
   <g>
   </g>
   <g>
   </g>
   <g>
   </g>
   <g>
   </g>
   <g>
   </g>
   <g>
   </g>
   <g>
   </g>
   <g>
   </g>
   <g>
   </g>
   <g>
   </g>
   <g>
   </g>
  </g>
 </g>
</svg>
